<svg width="125" height="138" viewBox="0 0 125 138" fill="none" xmlns="http://www.w3.org/2000/svg">
<g opacity="0.6" clip-path="url(#clip0)">
<path d="M1 14C0.447715 14 0 13.5523 0 13C0 12.4477 0.447715 12 1 12C1.55228 12 2 12.4477 2 13C2 13.5523 1.55228 14 1 14Z" fill="white"/>
<path d="M9.21001 13.9301C8.69639 13.9301 8.28001 13.5137 8.28001 13.0001C8.28001 12.4864 8.69639 12.0701 9.21001 12.0701C9.72364 12.0701 10.14 12.4864 10.14 13.0001C10.14 13.5137 9.72364 13.9301 9.21001 13.9301Z" fill="white"/>
<path d="M17.41 13.8699C16.9295 13.8699 16.54 13.4804 16.54 12.9999C16.54 12.5194 16.9295 12.1299 17.41 12.1299C17.8905 12.1299 18.28 12.5194 18.28 12.9999C18.28 13.4804 17.8905 13.8699 17.41 13.8699Z" fill="white"/>
<path d="M25.61 13.8C25.1682 13.8 24.81 13.4418 24.81 13C24.81 12.5581 25.1682 12.2 25.61 12.2C26.0519 12.2 26.41 12.5581 26.41 13C26.41 13.4418 26.0519 13.8 25.61 13.8Z" fill="white"/>
<path d="M33.81 13.73C34.22 13.73 34.54 13.4 34.54 13C34.54 12.6 34.21 12.27 33.81 12.27C33.41 12.27 33.08 12.6 33.08 13C33.08 13.41 33.41 13.73 33.81 13.73Z" fill="white"/>
<path d="M42.0201 13.6701C42.3901 13.6701 42.6901 13.3701 42.6901 13.0001C42.6901 12.6301 42.3901 12.3301 42.0201 12.3301C41.6501 12.3301 41.3501 12.6301 41.3501 13.0001C41.3501 13.3701 41.6501 13.6701 42.0201 13.6701Z" fill="white"/>
<path d="M50.2201 13.5999C50.5501 13.5999 50.8201 13.3299 50.8201 12.9999C50.8201 12.6699 50.5501 12.3999 50.2201 12.3999C49.8901 12.3999 49.6201 12.6699 49.6201 12.9999C49.6201 13.3299 49.8901 13.5999 50.2201 13.5999Z" fill="white"/>
<path d="M58.4201 13.53C58.7101 13.53 58.9501 13.29 58.9501 13C58.9501 12.71 58.7101 12.47 58.4201 12.47C58.1301 12.47 57.8901 12.71 57.8901 13C57.8901 13.29 58.1301 13.53 58.4201 13.53Z" fill="white"/>
<path d="M66.6201 13.47C66.8801 13.47 67.0901 13.26 67.0901 13C67.0901 12.74 66.8801 12.53 66.6201 12.53C66.3601 12.53 66.1501 12.74 66.1501 13C66.1601 13.26 66.3601 13.47 66.6201 13.47Z" fill="white"/>
<path d="M74.83 13.4001C75.05 13.4001 75.23 13.2201 75.23 13.0001C75.23 12.7801 75.05 12.6001 74.83 12.6001C74.61 12.6001 74.43 12.7801 74.43 13.0001C74.43 13.2201 74.6 13.4001 74.83 13.4001Z" fill="white"/>
<path d="M83.03 13.3299C83.21 13.3299 83.36 13.1799 83.36 12.9999C83.36 12.8199 83.21 12.6699 83.03 12.6699C82.85 12.6699 82.7 12.8199 82.7 12.9999C82.7 13.1799 82.84 13.3299 83.03 13.3299Z" fill="white"/>
<path d="M91.23 13.27C91.38 13.27 91.5 13.15 91.5 13C91.5 12.85 91.38 12.73 91.23 12.73C91.08 12.73 90.96 12.85 90.96 13C90.96 13.15 91.08 13.27 91.23 13.27Z" fill="white"/>
<path d="M99.43 13.2C99.54 13.2 99.63 13.11 99.63 13C99.63 12.89 99.54 12.8 99.43 12.8C99.32 12.8 99.23 12.89 99.23 13C99.23 13.11 99.32 13.2 99.43 13.2Z" fill="white"/>
<path d="M107.64 13.1301C107.71 13.1301 107.77 13.0701 107.77 13.0001C107.77 12.9301 107.71 12.8701 107.64 12.8701C107.57 12.8701 107.51 12.9301 107.51 13.0001C107.51 13.0701 107.56 13.1301 107.64 13.1301Z" fill="white"/>
<path d="M115.84 13.0699C115.801 13.0699 115.77 13.0386 115.77 12.9999C115.77 12.9613 115.801 12.9299 115.84 12.9299C115.879 12.9299 115.91 12.9613 115.91 12.9999C115.91 13.0386 115.879 13.0699 115.84 13.0699Z" fill="white"/>
<path d="M1 21.24C0.447715 21.24 0 20.7923 0 20.24C0 19.6877 0.447715 19.24 1 19.24C1.55228 19.24 2 19.6877 2 20.24C2 20.7923 1.55228 21.24 1 21.24Z" fill="white"/>
<path d="M9.21001 21.1701C9.73001 21.1701 10.14 20.7501 10.14 20.2401C10.14 19.7201 9.72001 19.3101 9.21001 19.3101C8.69001 19.3101 8.28001 19.7301 8.28001 20.2401C8.27001 20.7501 8.69001 21.1701 9.21001 21.1701Z" fill="white"/>
<path d="M17.41 21.1001C17.89 21.1001 18.28 20.7101 18.28 20.2301C18.28 19.7501 17.89 19.3601 17.41 19.3601C16.93 19.3601 16.54 19.7501 16.54 20.2301C16.54 20.7201 16.93 21.1001 17.41 21.1001Z" fill="white"/>
<path d="M25.61 21.0399C26.05 21.0399 26.41 20.6799 26.41 20.2399C26.41 19.7999 26.05 19.4399 25.61 19.4399C25.17 19.4399 24.81 19.7999 24.81 20.2399C24.81 20.6799 25.17 21.0399 25.61 21.0399Z" fill="white"/>
<path d="M33.81 20.97C34.22 20.97 34.54 20.64 34.54 20.24C34.54 19.83 34.21 19.51 33.81 19.51C33.41 19.51 33.08 19.84 33.08 20.24C33.08 20.64 33.41 20.97 33.81 20.97Z" fill="white"/>
<path d="M42.0201 20.9001C42.3901 20.9001 42.6901 20.6001 42.6901 20.2301C42.6901 19.8601 42.3901 19.5601 42.0201 19.5601C41.6501 19.5601 41.3501 19.8601 41.3501 20.2301C41.3501 20.6101 41.6501 20.9001 42.0201 20.9001Z" fill="white"/>
<path d="M50.2201 20.8399C50.5501 20.8399 50.8201 20.5699 50.8201 20.2399C50.8201 19.9099 50.5501 19.6399 50.2201 19.6399C49.8901 19.6399 49.6201 19.9099 49.6201 20.2399C49.6201 20.5699 49.8901 20.8399 50.2201 20.8399Z" fill="white"/>
<path d="M58.4201 20.77C58.7101 20.77 58.9501 20.53 58.9501 20.24C58.9501 19.95 58.7101 19.71 58.4201 19.71C58.1301 19.71 57.8901 19.95 57.8901 20.24C57.8901 20.53 58.1301 20.77 58.4201 20.77Z" fill="white"/>
<path d="M66.6201 20.7C66.8801 20.7 67.0901 20.49 67.0901 20.23C67.0901 19.97 66.8801 19.76 66.6201 19.76C66.3601 19.76 66.1501 19.97 66.1501 20.23C66.1601 20.5 66.3601 20.7 66.6201 20.7Z" fill="white"/>
<path d="M74.83 20.6401C75.05 20.6401 75.23 20.4601 75.23 20.2401C75.23 20.0201 75.05 19.8401 74.83 19.8401C74.61 19.8401 74.43 20.0201 74.43 20.2401C74.43 20.4601 74.6 20.6401 74.83 20.6401Z" fill="white"/>
<path d="M83.03 20.5699C83.21 20.5699 83.36 20.4199 83.36 20.2399C83.36 20.0599 83.21 19.9099 83.03 19.9099C82.85 19.9099 82.7 20.0599 82.7 20.2399C82.69 20.4199 82.84 20.5699 83.03 20.5699Z" fill="white"/>
<path d="M91.23 20.5C91.38 20.5 91.5 20.38 91.5 20.23C91.5 20.08 91.38 19.96 91.23 19.96C91.08 19.96 90.96 20.08 90.96 20.23C90.96 20.38 91.08 20.5 91.23 20.5Z" fill="white"/>
<path d="M99.43 20.44C99.54 20.44 99.63 20.35 99.63 20.24C99.63 20.13 99.54 20.04 99.43 20.04C99.32 20.04 99.23 20.13 99.23 20.24C99.23 20.35 99.32 20.44 99.43 20.44Z" fill="white"/>
<path d="M107.64 20.3701C107.71 20.3701 107.77 20.3101 107.77 20.2401C107.77 20.1701 107.71 20.1101 107.64 20.1101C107.57 20.1101 107.51 20.1701 107.51 20.2401C107.5 20.3101 107.56 20.3701 107.64 20.3701Z" fill="white"/>
<path d="M115.84 20.2999C115.88 20.2999 115.91 20.2699 115.91 20.2299C115.91 20.1899 115.87 20.1699 115.84 20.1699C115.81 20.1699 115.77 20.1999 115.77 20.2399C115.77 20.2799 115.8 20.2999 115.84 20.2999Z" fill="white"/>
<path d="M1 28.47C0.447715 28.47 0 28.0223 0 27.47C0 26.9177 0.447715 26.47 1 26.47C1.55228 26.47 2 26.9177 2 27.47C2 28.0223 1.55228 28.47 1 28.47Z" fill="white"/>
<path d="M9.21001 28.4C8.69639 28.4 8.28001 27.9837 8.28001 27.47C8.28001 26.9564 8.69639 26.54 9.21001 26.54C9.72364 26.54 10.14 26.9564 10.14 27.47C10.14 27.9837 9.72364 28.4 9.21001 28.4Z" fill="white"/>
<path d="M17.41 28.3399C16.9295 28.3399 16.54 27.9503 16.54 27.4699C16.54 26.9894 16.9295 26.5999 17.41 26.5999C17.8905 26.5999 18.28 26.9894 18.28 27.4699C18.28 27.9503 17.8905 28.3399 17.41 28.3399Z" fill="white"/>
<path d="M25.61 28.2699C25.1682 28.2699 24.81 27.9117 24.81 27.4699C24.81 27.0281 25.1682 26.6699 25.61 26.6699C26.0519 26.6699 26.41 27.0281 26.41 27.4699C26.41 27.9117 26.0519 28.2699 25.61 28.2699Z" fill="white"/>
<path d="M33.81 28.2C33.4069 28.2 33.08 27.8732 33.08 27.47C33.08 27.0668 33.4069 26.74 33.81 26.74C34.2132 26.74 34.54 27.0668 34.54 27.47C34.54 27.8732 34.2132 28.2 33.81 28.2Z" fill="white"/>
<path d="M42.0201 28.14C42.3901 28.14 42.6901 27.84 42.6901 27.47C42.6901 27.1 42.3901 26.8 42.0201 26.8C41.6501 26.8 41.3501 27.1 41.3501 27.47C41.3501 27.84 41.6501 28.14 42.0201 28.14Z" fill="white"/>
<path d="M50.2201 28.0699C50.5501 28.0699 50.8201 27.7999 50.8201 27.4699C50.8201 27.1399 50.5501 26.8699 50.2201 26.8699C49.8901 26.8699 49.6201 27.1399 49.6201 27.4699C49.6201 27.7999 49.8901 28.0699 50.2201 28.0699Z" fill="white"/>
<path d="M58.4201 28.01C58.7101 28.01 58.9501 27.77 58.9501 27.48C58.9501 27.19 58.7101 26.95 58.4201 26.95C58.1301 26.95 57.8901 27.19 57.8901 27.48C57.8901 27.77 58.1301 28.01 58.4201 28.01Z" fill="white"/>
<path d="M66.6201 27.94C66.8801 27.94 67.0901 27.73 67.0901 27.47C67.0901 27.21 66.8801 27 66.6201 27C66.3601 27 66.1501 27.21 66.1501 27.47C66.1501 27.73 66.3601 27.94 66.6201 27.94Z" fill="white"/>
<path d="M74.83 27.8701C75.05 27.8701 75.23 27.6901 75.23 27.4701C75.23 27.2501 75.05 27.0701 74.83 27.0701C74.61 27.0701 74.43 27.2501 74.43 27.4701C74.43 27.6901 74.6 27.8701 74.83 27.8701Z" fill="white"/>
<path d="M83.03 27.8099C83.21 27.8099 83.36 27.6599 83.36 27.4799C83.36 27.2999 83.21 27.1499 83.03 27.1499C82.85 27.1499 82.7 27.2999 82.7 27.4799C82.7 27.6599 82.84 27.8099 83.03 27.8099Z" fill="white"/>
<path d="M91.23 27.74C91.38 27.74 91.5 27.62 91.5 27.47C91.5 27.32 91.38 27.2 91.23 27.2C91.08 27.2 90.96 27.32 90.96 27.47C90.96 27.62 91.08 27.74 91.23 27.74Z" fill="white"/>
<path d="M99.43 27.67C99.54 27.67 99.63 27.58 99.63 27.47C99.63 27.36 99.54 27.27 99.43 27.27C99.32 27.27 99.23 27.36 99.23 27.47C99.23 27.58 99.32 27.67 99.43 27.67Z" fill="white"/>
<path d="M107.64 27.6099C107.71 27.6099 107.77 27.5499 107.77 27.4799C107.77 27.4099 107.71 27.3499 107.64 27.3499C107.57 27.3499 107.51 27.4099 107.51 27.4799C107.51 27.5499 107.56 27.6099 107.64 27.6099Z" fill="white"/>
<path d="M115.84 27.5399C115.801 27.5399 115.77 27.5086 115.77 27.4699C115.77 27.4312 115.801 27.3999 115.84 27.3999C115.879 27.3999 115.91 27.4312 115.91 27.4699C115.91 27.5086 115.879 27.5399 115.84 27.5399Z" fill="white"/>
<path d="M1 35.71C0.447715 35.71 0 35.2622 0 34.71C0 34.1577 0.447715 33.71 1 33.71C1.55228 33.71 2 34.1577 2 34.71C2 35.2622 1.55228 35.71 1 35.71Z" fill="white"/>
<path d="M9.21001 35.64C8.69639 35.64 8.28001 35.2237 8.28001 34.71C8.28001 34.1964 8.69639 33.78 9.21001 33.78C9.72364 33.78 10.14 34.1964 10.14 34.71C10.14 35.2237 9.72364 35.64 9.21001 35.64Z" fill="white"/>
<path d="M17.41 35.5798C16.9295 35.5798 16.54 35.1903 16.54 34.7098C16.54 34.2294 16.9295 33.8398 17.41 33.8398C17.8905 33.8398 18.28 34.2294 18.28 34.7098C18.28 35.1903 17.8905 35.5798 17.41 35.5798Z" fill="white"/>
<path d="M25.61 35.5099C25.1682 35.5099 24.81 35.1517 24.81 34.7099C24.81 34.2681 25.1682 33.9099 25.61 33.9099C26.0519 33.9099 26.41 34.2681 26.41 34.7099C26.41 35.1517 26.0519 35.5099 25.61 35.5099Z" fill="white"/>
<path d="M33.81 35.44C33.4069 35.44 33.08 35.1131 33.08 34.71C33.08 34.3068 33.4069 33.98 33.81 33.98C34.2132 33.98 34.54 34.3068 34.54 34.71C34.54 35.1131 34.2132 35.44 33.81 35.44Z" fill="white"/>
<path d="M42.0201 35.38C41.65 35.38 41.3501 35.0801 41.3501 34.71C41.3501 34.34 41.65 34.04 42.0201 34.04C42.3901 34.04 42.6901 34.34 42.6901 34.71C42.6901 35.0801 42.3901 35.38 42.0201 35.38Z" fill="white"/>
<path d="M50.2201 35.3099C49.8887 35.3099 49.6201 35.0412 49.6201 34.7099C49.6201 34.3785 49.8887 34.1099 50.2201 34.1099C50.5514 34.1099 50.8201 34.3785 50.8201 34.7099C50.8201 35.0412 50.5514 35.3099 50.2201 35.3099Z" fill="white"/>
<path d="M58.4201 35.2499C58.7101 35.2499 58.9501 35.0099 58.9501 34.7199C58.9501 34.4299 58.7101 34.1899 58.4201 34.1899C58.1301 34.1899 57.8901 34.4299 57.8901 34.7199C57.8901 35.0099 58.1301 35.2499 58.4201 35.2499Z" fill="white"/>
<path d="M66.6201 35.18C66.8801 35.18 67.0901 34.97 67.0901 34.71C67.0901 34.45 66.8801 34.24 66.6201 34.24C66.3601 34.24 66.1501 34.45 66.1501 34.71C66.1501 34.97 66.3601 35.18 66.6201 35.18Z" fill="white"/>
<path d="M74.83 35.1101C74.6091 35.1101 74.43 34.931 74.43 34.7101C74.43 34.4891 74.6091 34.3101 74.83 34.3101C75.0509 34.3101 75.23 34.4891 75.23 34.7101C75.23 34.931 75.0509 35.1101 74.83 35.1101Z" fill="white"/>
<path d="M83.03 35.0499C83.21 35.0499 83.36 34.8999 83.36 34.7199C83.36 34.5399 83.21 34.3899 83.03 34.3899C82.85 34.3899 82.7 34.5399 82.7 34.7199C82.7 34.8999 82.84 35.0499 83.03 35.0499Z" fill="white"/>
<path d="M91.23 34.9799C91.38 34.9799 91.5 34.8599 91.5 34.7099C91.5 34.5599 91.38 34.4399 91.23 34.4399C91.08 34.4399 90.96 34.5599 90.96 34.7099C90.96 34.8599 91.08 34.9799 91.23 34.9799Z" fill="white"/>
<path d="M99.43 34.91C99.54 34.91 99.63 34.82 99.63 34.71C99.63 34.6 99.54 34.51 99.43 34.51C99.32 34.51 99.23 34.6 99.23 34.71C99.23 34.82 99.32 34.91 99.43 34.91Z" fill="white"/>
<path d="M107.64 34.8498C107.71 34.8498 107.77 34.7898 107.77 34.7198C107.77 34.6498 107.71 34.5898 107.64 34.5898C107.57 34.5898 107.51 34.6498 107.51 34.7198C107.51 34.7898 107.56 34.8498 107.64 34.8498Z" fill="white"/>
<path d="M115.84 34.7799C115.801 34.7799 115.77 34.7486 115.77 34.7099C115.77 34.6712 115.801 34.6399 115.84 34.6399C115.879 34.6399 115.91 34.6712 115.91 34.7099C115.91 34.7486 115.879 34.7799 115.84 34.7799Z" fill="white"/>
<path d="M1 42.95C0.447715 42.95 0 42.5022 0 41.95C0 41.3977 0.447715 40.95 1 40.95C1.55228 40.95 2 41.3977 2 41.95C2 42.5022 1.55228 42.95 1 42.95Z" fill="white"/>
<path d="M9.21001 42.88C9.73001 42.88 10.14 42.46 10.14 41.95C10.14 41.44 9.72001 41.02 9.21001 41.02C8.69001 41.02 8.28001 41.44 8.28001 41.95C8.28001 42.46 8.69001 42.88 9.21001 42.88Z" fill="white"/>
<path d="M17.41 42.8198C16.9295 42.8198 16.54 42.4303 16.54 41.9498C16.54 41.4693 16.9295 41.0798 17.41 41.0798C17.8905 41.0798 18.28 41.4693 18.28 41.9498C18.28 42.4303 17.8905 42.8198 17.41 42.8198Z" fill="white"/>
<path d="M25.61 42.7499C26.05 42.7499 26.41 42.3899 26.41 41.9499C26.41 41.5099 26.05 41.1499 25.61 41.1499C25.17 41.1499 24.81 41.5099 24.81 41.9499C24.81 42.3899 25.17 42.7499 25.61 42.7499Z" fill="white"/>
<path d="M33.81 42.68C33.4069 42.68 33.08 42.3531 33.08 41.95C33.08 41.5468 33.4069 41.22 33.81 41.22C34.2132 41.22 34.54 41.5468 34.54 41.95C34.54 42.3531 34.2132 42.68 33.81 42.68Z" fill="white"/>
<path d="M41.3458 42.0011C41.3196 41.632 41.5975 41.3115 41.9666 41.2853C42.3358 41.2591 42.6562 41.537 42.6825 41.9061C42.7087 42.2752 42.4308 42.5957 42.0617 42.622C41.6925 42.6482 41.3721 42.3703 41.3458 42.0011Z" fill="white"/>
<path d="M50.2201 42.5499C49.8887 42.5499 49.6201 42.2812 49.6201 41.9499C49.6201 41.6185 49.8887 41.3499 50.2201 41.3499C50.5514 41.3499 50.8201 41.6185 50.8201 41.9499C50.8201 42.2812 50.5514 42.5499 50.2201 42.5499Z" fill="white"/>
<path d="M58.4201 42.4799C58.1274 42.4799 57.8901 42.2426 57.8901 41.9499C57.8901 41.6572 58.1274 41.4199 58.4201 41.4199C58.7128 41.4199 58.9501 41.6572 58.9501 41.9499C58.9501 42.2426 58.7128 42.4799 58.4201 42.4799Z" fill="white"/>
<path d="M66.6201 42.42C66.8801 42.42 67.0901 42.21 67.0901 41.95C67.0901 41.69 66.8801 41.48 66.6201 41.48C66.3601 41.48 66.1501 41.69 66.1501 41.95C66.1601 42.21 66.3601 42.42 66.6201 42.42Z" fill="white"/>
<path d="M74.83 42.35C74.6091 42.35 74.43 42.171 74.43 41.9501C74.43 41.7291 74.6091 41.55 74.83 41.55C75.0509 41.55 75.23 41.7291 75.23 41.9501C75.23 42.171 75.0509 42.35 74.83 42.35Z" fill="white"/>
<path d="M83.03 42.2799C83.21 42.2799 83.36 42.1299 83.36 41.9499C83.36 41.7699 83.21 41.6199 83.03 41.6199C82.85 41.6199 82.7 41.7699 82.7 41.9499C82.69 42.1299 82.84 42.2799 83.03 42.2799Z" fill="white"/>
<path d="M91.23 42.2199C91.38 42.2199 91.5 42.0999 91.5 41.9499C91.5 41.7999 91.38 41.6799 91.23 41.6799C91.08 41.6799 90.96 41.7999 90.96 41.9499C90.96 42.0999 91.08 42.2199 91.23 42.2199Z" fill="white"/>
<path d="M99.43 42.15C99.54 42.15 99.63 42.06 99.63 41.95C99.63 41.84 99.54 41.75 99.43 41.75C99.32 41.75 99.23 41.84 99.23 41.95C99.23 42.06 99.32 42.15 99.43 42.15Z" fill="white"/>
<path d="M107.64 42.0801C107.71 42.0801 107.77 42.0201 107.77 41.9501C107.77 41.8801 107.71 41.8201 107.64 41.8201C107.57 41.8201 107.51 41.8801 107.51 41.9501C107.51 42.0201 107.56 42.0801 107.64 42.0801Z" fill="white"/>
<path d="M115.84 42.0199C115.88 42.0199 115.91 41.9899 115.91 41.9499C115.91 41.9099 115.88 41.8799 115.84 41.8799C115.8 41.8799 115.77 41.9099 115.77 41.9499C115.77 41.9899 115.8 42.0199 115.84 42.0199Z" fill="white"/>
<path d="M1 50.1899C0.447715 50.1899 0 49.7422 0 49.1899C0 48.6377 0.447715 48.1899 1 48.1899C1.55228 48.1899 2 48.6377 2 49.1899C2 49.7422 1.55228 50.1899 1 50.1899Z" fill="white"/>
<path d="M9.21001 50.12C9.73001 50.12 10.14 49.7 10.14 49.19C10.14 48.68 9.72001 48.26 9.21001 48.26C8.69001 48.26 8.28001 48.68 8.28001 49.19C8.28001 49.7 8.69001 50.12 9.21001 50.12Z" fill="white"/>
<path d="M17.41 50.0598C16.9295 50.0598 16.54 49.6703 16.54 49.1898C16.54 48.7093 16.9295 48.3198 17.41 48.3198C17.8905 48.3198 18.28 48.7093 18.28 49.1898C18.28 49.6703 17.8905 50.0598 17.41 50.0598Z" fill="white"/>
<path d="M25.61 49.9899C26.05 49.9899 26.41 49.6299 26.41 49.1899C26.41 48.7499 26.05 48.3899 25.61 48.3899C25.17 48.3899 24.81 48.7499 24.81 49.1899C24.81 49.6299 25.17 49.9899 25.61 49.9899Z" fill="white"/>
<path d="M33.81 49.92C33.4069 49.92 33.08 49.5931 33.08 49.19C33.08 48.7868 33.4069 48.46 33.81 48.46C34.2132 48.46 34.54 48.7868 34.54 49.19C34.54 49.5931 34.2132 49.92 33.81 49.92Z" fill="white"/>
<path d="M42.0201 49.85C42.3901 49.85 42.6901 49.55 42.6901 49.18C42.6901 48.81 42.3901 48.51 42.0201 48.51C41.6501 48.51 41.3501 48.81 41.3501 49.18C41.3501 49.55 41.6501 49.85 42.0201 49.85Z" fill="white"/>
<path d="M50.2201 49.7898C49.8887 49.7898 49.6201 49.5212 49.6201 49.1898C49.6201 48.8585 49.8887 48.5898 50.2201 48.5898C50.5514 48.5898 50.8201 48.8585 50.8201 49.1898C50.8201 49.5212 50.5514 49.7898 50.2201 49.7898Z" fill="white"/>
<path d="M58.4201 49.7199C58.1274 49.7199 57.8901 49.4826 57.8901 49.1899C57.8901 48.8972 58.1274 48.6599 58.4201 48.6599C58.7128 48.6599 58.9501 48.8972 58.9501 49.1899C58.9501 49.4826 58.7128 49.7199 58.4201 49.7199Z" fill="white"/>
<path d="M66.6201 49.65C66.8801 49.65 67.0901 49.44 67.0901 49.18C67.0901 48.92 66.8801 48.71 66.6201 48.71C66.3601 48.71 66.1501 48.92 66.1501 49.18C66.1601 49.45 66.3601 49.65 66.6201 49.65Z" fill="white"/>
<path d="M74.83 49.59C74.6091 49.59 74.43 49.411 74.43 49.19C74.43 48.9691 74.6091 48.79 74.83 48.79C75.0509 48.79 75.23 48.9691 75.23 49.19C75.23 49.411 75.0509 49.59 74.83 49.59Z" fill="white"/>
<path d="M83.03 49.5199C83.21 49.5199 83.36 49.3699 83.36 49.1899C83.36 49.0099 83.21 48.8599 83.03 48.8599C82.85 48.8599 82.7 49.0099 82.7 49.1899C82.69 49.3699 82.84 49.5199 83.03 49.5199Z" fill="white"/>
<path d="M91.23 49.4499C91.38 49.4499 91.5 49.3299 91.5 49.1799C91.5 49.0299 91.38 48.9099 91.23 48.9099C91.08 48.9099 90.96 49.0299 90.96 49.1799C90.96 49.3299 91.08 49.4499 91.23 49.4499Z" fill="white"/>
<path d="M99.43 49.39C99.54 49.39 99.63 49.3 99.63 49.19C99.63 49.08 99.54 48.99 99.43 48.99C99.32 48.99 99.23 49.08 99.23 49.19C99.23 49.3 99.32 49.39 99.43 49.39Z" fill="white"/>
<path d="M107.64 49.3201C107.71 49.3201 107.77 49.2601 107.77 49.1901C107.77 49.1201 107.71 49.0601 107.64 49.0601C107.57 49.0601 107.51 49.1201 107.51 49.1901C107.51 49.2601 107.56 49.3201 107.64 49.3201Z" fill="white"/>
<path d="M115.84 49.2499C115.88 49.2499 115.91 49.2199 115.91 49.1799C115.91 49.1399 115.88 49.1099 115.84 49.1099C115.8 49.1099 115.77 49.1399 115.77 49.1799C115.77 49.2199 115.8 49.2499 115.84 49.2499Z" fill="white"/>
<path d="M1 57.4199C0.447715 57.4199 0 56.9722 0 56.4199C0 55.8676 0.447715 55.4199 1 55.4199C1.55228 55.4199 2 55.8676 2 56.4199C2 56.9722 1.55228 57.4199 1 57.4199Z" fill="white"/>
<path d="M9.21001 57.36C9.73001 57.36 10.14 56.94 10.14 56.43C10.14 55.91 9.72001 55.5 9.21001 55.5C8.69001 55.5 8.28001 55.92 8.28001 56.43C8.27001 56.94 8.69001 57.36 9.21001 57.36Z" fill="white"/>
<path d="M17.41 57.2898C16.9295 57.2898 16.54 56.9003 16.54 56.4198C16.54 55.9393 16.9295 55.5498 17.41 55.5498C17.8905 55.5498 18.28 55.9393 18.28 56.4198C18.28 56.9003 17.8905 57.2898 17.41 57.2898Z" fill="white"/>
<path d="M25.61 57.2199C26.05 57.2199 26.41 56.8599 26.41 56.4199C26.41 55.9799 26.05 55.6199 25.61 55.6199C25.17 55.6199 24.81 55.9799 24.81 56.4199C24.81 56.8699 25.17 57.2199 25.61 57.2199Z" fill="white"/>
<path d="M33.81 57.16C34.22 57.16 34.54 56.83 34.54 56.43C34.54 56.03 34.21 55.7 33.81 55.7C33.41 55.7 33.08 56.03 33.08 56.43C33.08 56.83 33.41 57.16 33.81 57.16Z" fill="white"/>
<path d="M42.0201 57.09C42.3901 57.09 42.6901 56.79 42.6901 56.42C42.6901 56.05 42.3901 55.75 42.0201 55.75C41.6501 55.75 41.3501 56.05 41.3501 56.42C41.3501 56.79 41.6501 57.09 42.0201 57.09Z" fill="white"/>
<path d="M50.2201 57.0198C50.5501 57.0198 50.8201 56.7498 50.8201 56.4198C50.8201 56.0898 50.5501 55.8198 50.2201 55.8198C49.8901 55.8198 49.6201 56.0898 49.6201 56.4198C49.6201 56.7598 49.8901 57.0198 50.2201 57.0198Z" fill="white"/>
<path d="M58.4201 56.9599C58.7101 56.9599 58.9501 56.7199 58.9501 56.4299C58.9501 56.1399 58.7101 55.8999 58.4201 55.8999C58.1301 55.8999 57.8901 56.1399 57.8901 56.4299C57.8901 56.7199 58.1301 56.9599 58.4201 56.9599Z" fill="white"/>
<path d="M66.6201 56.8899C66.8801 56.8899 67.0901 56.6799 67.0901 56.4199C67.0901 56.1599 66.8801 55.95 66.6201 55.95C66.3601 55.95 66.1501 56.1599 66.1501 56.4199C66.1601 56.6799 66.3601 56.8899 66.6201 56.8899Z" fill="white"/>
<path d="M74.83 56.82C75.05 56.82 75.23 56.64 75.23 56.42C75.23 56.2 75.05 56.02 74.83 56.02C74.61 56.02 74.43 56.2 74.43 56.42C74.43 56.65 74.6 56.82 74.83 56.82Z" fill="white"/>
<path d="M83.03 56.7599C83.21 56.7599 83.36 56.6099 83.36 56.4299C83.36 56.2499 83.21 56.0999 83.03 56.0999C82.85 56.0999 82.7 56.2499 82.7 56.4299C82.69 56.6099 82.84 56.7599 83.03 56.7599Z" fill="white"/>
<path d="M91.23 56.6899C91.38 56.6899 91.5 56.5699 91.5 56.4199C91.5 56.2699 91.38 56.1499 91.23 56.1499C91.08 56.1499 90.96 56.2699 90.96 56.4199C90.96 56.5699 91.08 56.6899 91.23 56.6899Z" fill="white"/>
<path d="M99.43 56.62C99.54 56.62 99.63 56.53 99.63 56.42C99.63 56.31 99.54 56.22 99.43 56.22C99.32 56.22 99.23 56.31 99.23 56.42C99.23 56.54 99.32 56.62 99.43 56.62Z" fill="white"/>
<path d="M107.64 56.5598C107.71 56.5598 107.77 56.4998 107.77 56.4298C107.77 56.3598 107.71 56.2998 107.64 56.2998C107.57 56.2998 107.51 56.3598 107.51 56.4298C107.51 56.4998 107.56 56.5598 107.64 56.5598Z" fill="white"/>
<path d="M115.84 56.4899C115.88 56.4899 115.91 56.4599 115.91 56.4199C115.91 56.3799 115.88 56.3499 115.84 56.3499C115.8 56.3499 115.77 56.3799 115.77 56.4199C115.77 56.4599 115.8 56.4899 115.84 56.4899Z" fill="white"/>
<path d="M1 64.6599C0.447715 64.6599 0 64.2122 0 63.6599C0 63.1076 0.447715 62.6599 1 62.6599C1.55228 62.6599 2 63.1076 2 63.6599C2 64.2122 1.55228 64.6599 1 64.6599Z" fill="white"/>
<path d="M9.21001 64.6C9.73001 64.6 10.14 64.18 10.14 63.67C10.14 63.16 9.72001 62.74 9.21001 62.74C8.69001 62.74 8.28001 63.16 8.28001 63.67C8.28001 64.18 8.69001 64.6 9.21001 64.6Z" fill="white"/>
<path d="M17.41 64.5298C16.9295 64.5298 16.54 64.1403 16.54 63.6598C16.54 63.1793 16.9295 62.7898 17.41 62.7898C17.8905 62.7898 18.28 63.1793 18.28 63.6598C18.28 64.1403 17.8905 64.5298 17.41 64.5298Z" fill="white"/>
<path d="M25.61 64.4599C25.1682 64.4599 24.81 64.1017 24.81 63.6599C24.81 63.218 25.1682 62.8599 25.61 62.8599C26.0519 62.8599 26.41 63.218 26.41 63.6599C26.41 64.1017 26.0519 64.4599 25.61 64.4599Z" fill="white"/>
<path d="M33.81 64.3899C33.4069 64.3899 33.08 64.0631 33.08 63.6599C33.08 63.2568 33.4069 62.9299 33.81 62.9299C34.2132 62.9299 34.54 63.2568 34.54 63.6599C34.54 64.0631 34.2132 64.3899 33.81 64.3899Z" fill="white"/>
<path d="M41.3478 63.7135C41.3215 63.3444 41.5995 63.0239 41.9686 62.9977C42.3377 62.9715 42.6582 63.2494 42.6844 63.6185C42.7107 63.9876 42.4327 64.3081 42.0636 64.3344C41.6945 64.3606 41.374 64.0827 41.3478 63.7135Z" fill="white"/>
<path d="M50.2201 64.2598C49.8887 64.2598 49.6201 63.9912 49.6201 63.6598C49.6201 63.3284 49.8887 63.0598 50.2201 63.0598C50.5514 63.0598 50.8201 63.3284 50.8201 63.6598C50.8201 63.9912 50.5514 64.2598 50.2201 64.2598Z" fill="white"/>
<path d="M58.4201 64.1899C58.1274 64.1899 57.8901 63.9526 57.8901 63.6599C57.8901 63.3672 58.1274 63.1299 58.4201 63.1299C58.7128 63.1299 58.9501 63.3672 58.9501 63.6599C58.9501 63.9526 58.7128 64.1899 58.4201 64.1899Z" fill="white"/>
<path d="M66.6201 64.1299C66.8801 64.1299 67.0901 63.9199 67.0901 63.6599C67.0901 63.3999 66.8801 63.1899 66.6201 63.1899C66.3601 63.1899 66.1501 63.3999 66.1501 63.6599C66.1501 63.9199 66.3601 64.1299 66.6201 64.1299Z" fill="white"/>
<path d="M74.83 64.06C74.6091 64.06 74.43 63.8809 74.43 63.66C74.43 63.4391 74.6091 63.26 74.83 63.26C75.0509 63.26 75.23 63.4391 75.23 63.66C75.23 63.8809 75.0509 64.06 74.83 64.06Z" fill="white"/>
<path d="M83.03 63.9998C83.21 63.9998 83.36 63.8498 83.36 63.6698C83.36 63.4898 83.21 63.3398 83.03 63.3398C82.85 63.3398 82.7 63.4898 82.7 63.6698C82.7 63.8498 82.84 63.9998 83.03 63.9998Z" fill="white"/>
<path d="M91.23 63.9299C91.38 63.9299 91.5 63.8099 91.5 63.6599C91.5 63.5099 91.38 63.3899 91.23 63.3899C91.08 63.3899 90.96 63.5099 90.96 63.6599C90.96 63.8099 91.08 63.9299 91.23 63.9299Z" fill="white"/>
<path d="M99.43 63.86C99.54 63.86 99.63 63.77 99.63 63.66C99.63 63.55 99.54 63.46 99.43 63.46C99.32 63.46 99.23 63.55 99.23 63.66C99.23 63.77 99.32 63.86 99.43 63.86Z" fill="white"/>
<path d="M107.64 63.7998C107.71 63.7998 107.77 63.7398 107.77 63.6698C107.77 63.5998 107.71 63.5398 107.64 63.5398C107.57 63.5398 107.51 63.5998 107.51 63.6698C107.51 63.7398 107.56 63.7998 107.64 63.7998Z" fill="white"/>
<path d="M115.84 63.7298C115.88 63.7298 115.91 63.6998 115.91 63.6598C115.91 63.6198 115.88 63.5898 115.84 63.5898C115.8 63.5898 115.77 63.6198 115.77 63.6598C115.77 63.6998 115.8 63.7298 115.84 63.7298Z" fill="white"/>
<path d="M1 71.8999C0.447715 71.8999 0 71.4522 0 70.8999C0 70.3476 0.447715 69.8999 1 69.8999C1.55228 69.8999 2 70.3476 2 70.8999C2 71.4522 1.55228 71.8999 1 71.8999Z" fill="white"/>
<path d="M9.21001 71.83C9.73001 71.83 10.14 71.41 10.14 70.9C10.14 70.38 9.72001 69.97 9.21001 69.97C8.69001 69.97 8.28001 70.39 8.28001 70.9C8.27001 71.42 8.69001 71.83 9.21001 71.83Z" fill="white"/>
<path d="M17.41 71.7698C16.9295 71.7698 16.54 71.3803 16.54 70.8998C16.54 70.4193 16.9295 70.0298 17.41 70.0298C17.8905 70.0298 18.28 70.4193 18.28 70.8998C18.28 71.3803 17.8905 71.7698 17.41 71.7698Z" fill="white"/>
<path d="M25.61 71.6999C26.05 71.6999 26.41 71.3399 26.41 70.8999C26.41 70.4599 26.05 70.0999 25.61 70.0999C25.17 70.0999 24.81 70.4599 24.81 70.8999C24.81 71.3399 25.17 71.6999 25.61 71.6999Z" fill="white"/>
<path d="M33.81 71.6299C33.4069 71.6299 33.08 71.3031 33.08 70.8999C33.08 70.4968 33.4069 70.1699 33.81 70.1699C34.2132 70.1699 34.54 70.4968 34.54 70.8999C34.54 71.3031 34.2132 71.6299 33.81 71.6299Z" fill="white"/>
<path d="M42.0201 71.57C42.3901 71.57 42.6901 71.27 42.6901 70.9C42.6901 70.53 42.3901 70.23 42.0201 70.23C41.6501 70.23 41.3501 70.53 41.3501 70.9C41.3501 71.27 41.6501 71.57 42.0201 71.57Z" fill="white"/>
<path d="M50.2201 71.4998C50.5501 71.4998 50.8201 71.2298 50.8201 70.8998C50.8201 70.5698 50.5501 70.2998 50.2201 70.2998C49.8901 70.2998 49.6201 70.5698 49.6201 70.8998C49.6201 71.2298 49.8901 71.4998 50.2201 71.4998Z" fill="white"/>
<path d="M58.4201 71.4299C58.7101 71.4299 58.9501 71.1899 58.9501 70.8999C58.9501 70.6099 58.7101 70.3699 58.4201 70.3699C58.1301 70.3699 57.8901 70.6099 57.8901 70.8999C57.8901 71.1899 58.1301 71.4299 58.4201 71.4299Z" fill="white"/>
<path d="M66.6201 71.3699C66.8801 71.3699 67.0901 71.1599 67.0901 70.8999C67.0901 70.6399 66.8801 70.4299 66.6201 70.4299C66.3601 70.4299 66.1501 70.6399 66.1501 70.8999C66.1601 71.1599 66.3601 71.3699 66.6201 71.3699Z" fill="white"/>
<path d="M74.83 71.3C75.05 71.3 75.23 71.12 75.23 70.9C75.23 70.68 75.05 70.5 74.83 70.5C74.61 70.5 74.43 70.68 74.43 70.9C74.43 71.12 74.6 71.3 74.83 71.3Z" fill="white"/>
<path d="M83.03 71.2298C83.21 71.2298 83.36 71.0798 83.36 70.8998C83.36 70.7198 83.21 70.5698 83.03 70.5698C82.85 70.5698 82.7 70.7198 82.7 70.8998C82.69 71.0798 82.84 71.2298 83.03 71.2298Z" fill="white"/>
<path d="M91.23 71.1699C91.38 71.1699 91.5 71.0499 91.5 70.8999C91.5 70.7499 91.38 70.6299 91.23 70.6299C91.08 70.6299 90.96 70.7499 90.96 70.8999C90.96 71.0499 91.08 71.1699 91.23 71.1699Z" fill="white"/>
<path d="M99.43 71.0999C99.54 71.0999 99.63 71.01 99.63 70.9C99.63 70.79 99.54 70.7 99.43 70.7C99.32 70.7 99.23 70.79 99.23 70.9C99.23 71.01 99.32 71.0999 99.43 71.0999Z" fill="white"/>
<path d="M107.64 71.03C107.71 71.03 107.77 70.97 107.77 70.9C107.77 70.83 107.71 70.77 107.64 70.77C107.57 70.77 107.51 70.83 107.51 70.9C107.51 70.97 107.56 71.03 107.64 71.03Z" fill="white"/>
<path d="M115.84 70.9698C115.88 70.9698 115.91 70.9398 115.91 70.8998C115.91 70.8598 115.88 70.8298 115.84 70.8298C115.8 70.8298 115.77 70.8598 115.77 70.8998C115.77 70.9398 115.8 70.9698 115.84 70.9698Z" fill="white"/>
<path d="M1 79.1399C0.447715 79.1399 0 78.6922 0 78.1399C0 77.5876 0.447715 77.1399 1 77.1399C1.55228 77.1399 2 77.5876 2 78.1399C2 78.6922 1.55228 79.1399 1 79.1399Z" fill="white"/>
<path d="M9.21001 79.07C9.73001 79.07 10.14 78.65 10.14 78.14C10.14 77.62 9.72001 77.21 9.21001 77.21C8.69001 77.21 8.28001 77.63 8.28001 78.14C8.27001 78.65 8.69001 79.07 9.21001 79.07Z" fill="white"/>
<path d="M17.41 79.0098C16.9295 79.0098 16.54 78.6203 16.54 78.1398C16.54 77.6593 16.9295 77.2698 17.41 77.2698C17.8905 77.2698 18.28 77.6593 18.28 78.1398C18.28 78.6203 17.8905 79.0098 17.41 79.0098Z" fill="white"/>
<path d="M25.61 78.9398C26.05 78.9398 26.41 78.5798 26.41 78.1398C26.41 77.6998 26.05 77.3398 25.61 77.3398C25.17 77.3398 24.81 77.6998 24.81 78.1398C24.81 78.5798 25.17 78.9398 25.61 78.9398Z" fill="white"/>
<path d="M33.81 78.8699C33.4069 78.8699 33.08 78.5431 33.08 78.1399C33.08 77.7367 33.4069 77.4099 33.81 77.4099C34.2132 77.4099 34.54 77.7367 34.54 78.1399C34.54 78.5431 34.2132 78.8699 33.81 78.8699Z" fill="white"/>
<path d="M42.0201 78.8C42.3901 78.8 42.6901 78.5 42.6901 78.13C42.6901 77.76 42.3901 77.46 42.0201 77.46C41.6501 77.46 41.3501 77.76 41.3501 78.13C41.3501 78.5 41.6501 78.8 42.0201 78.8Z" fill="white"/>
<path d="M50.2201 78.7398C50.5501 78.7398 50.8201 78.4698 50.8201 78.1398C50.8201 77.8098 50.5501 77.5398 50.2201 77.5398C49.8901 77.5398 49.6201 77.8098 49.6201 78.1398C49.6201 78.4698 49.8901 78.7398 50.2201 78.7398Z" fill="white"/>
<path d="M58.4201 78.6699C58.7101 78.6699 58.9501 78.4299 58.9501 78.1399C58.9501 77.8499 58.7101 77.6099 58.4201 77.6099C58.1301 77.6099 57.8901 77.8499 57.8901 78.1399C57.8901 78.4299 58.1301 78.6699 58.4201 78.6699Z" fill="white"/>
<path d="M66.6201 78.5999C66.8801 78.5999 67.0901 78.3899 67.0901 78.1299C67.0901 77.8699 66.8801 77.6599 66.6201 77.6599C66.3601 77.6599 66.1501 77.8699 66.1501 78.1299C66.1601 78.3999 66.3601 78.5999 66.6201 78.5999Z" fill="white"/>
<path d="M74.83 78.54C75.05 78.54 75.23 78.36 75.23 78.14C75.23 77.92 75.05 77.74 74.83 77.74C74.61 77.74 74.43 77.92 74.43 78.14C74.43 78.36 74.6 78.54 74.83 78.54Z" fill="white"/>
<path d="M83.03 78.4698C83.21 78.4698 83.36 78.3198 83.36 78.1398C83.36 77.9598 83.21 77.8098 83.03 77.8098C82.85 77.8098 82.7 77.9598 82.7 78.1398C82.69 78.3198 82.84 78.4698 83.03 78.4698Z" fill="white"/>
<path d="M91.23 78.3999C91.38 78.3999 91.5 78.2799 91.5 78.1299C91.5 77.9799 91.38 77.8599 91.23 77.8599C91.08 77.8599 90.96 77.9799 90.96 78.1299C90.96 78.2799 91.08 78.3999 91.23 78.3999Z" fill="white"/>
<path d="M99.43 78.3399C99.54 78.3399 99.63 78.2499 99.63 78.1399C99.63 78.0299 99.54 77.9399 99.43 77.9399C99.32 77.9399 99.23 78.0299 99.23 78.1399C99.23 78.2499 99.32 78.3399 99.43 78.3399Z" fill="white"/>
<path d="M107.64 78.27C107.71 78.27 107.77 78.21 107.77 78.14C107.77 78.07 107.71 78 107.64 78C107.57 78 107.51 78.06 107.51 78.13C107.51 78.2 107.56 78.27 107.64 78.27Z" fill="white"/>
<path d="M115.84 78.1998C115.88 78.1998 115.91 78.1698 115.91 78.1298C115.91 78.0898 115.88 78.0598 115.84 78.0598C115.8 78.0598 115.77 78.0898 115.77 78.1298C115.77 78.1698 115.8 78.1998 115.84 78.1998Z" fill="white"/>
<path d="M1 86.3701C0.447715 86.3701 0 85.9224 0 85.3701C0 84.8178 0.447715 84.3701 1 84.3701C1.55228 84.3701 2 84.8178 2 85.3701C2 85.9224 1.55228 86.3701 1 86.3701Z" fill="white"/>
<path d="M9.21001 86.3102C9.73001 86.3102 10.14 85.8902 10.14 85.3802C10.14 84.8702 9.72001 84.4502 9.21001 84.4502C8.69001 84.4502 8.28001 84.8702 8.28001 85.3802C8.28001 85.8902 8.69001 86.3102 9.21001 86.3102Z" fill="white"/>
<path d="M17.41 86.24C16.9295 86.24 16.54 85.8505 16.54 85.37C16.54 84.8895 16.9295 84.5 17.41 84.5C17.8905 84.5 18.28 84.8895 18.28 85.37C18.28 85.8505 17.8905 86.24 17.41 86.24Z" fill="white"/>
<path d="M25.61 86.1701C25.1682 86.1701 24.81 85.8119 24.81 85.3701C24.81 84.9282 25.1682 84.5701 25.61 84.5701C26.0519 84.5701 26.41 84.9282 26.41 85.3701C26.41 85.8119 26.0519 86.1701 25.61 86.1701Z" fill="white"/>
<path d="M33.81 86.1001C33.4069 86.1001 33.08 85.7733 33.08 85.3701C33.08 84.967 33.4069 84.6401 33.81 84.6401C34.2132 84.6401 34.54 84.967 34.54 85.3701C34.54 85.7733 34.2132 86.1001 33.81 86.1001Z" fill="white"/>
<path d="M41.35 85.4264C41.3237 85.0573 41.6017 84.7368 41.9708 84.7106C42.3399 84.6844 42.6604 84.9623 42.6866 85.3314C42.7129 85.7005 42.4349 86.021 42.0658 86.0473C41.6967 86.0735 41.3762 85.7955 41.35 85.4264Z" fill="white"/>
<path d="M50.2201 85.97C49.8887 85.97 49.6201 85.7014 49.6201 85.37C49.6201 85.0387 49.8887 84.77 50.2201 84.77C50.5514 84.77 50.8201 85.0387 50.8201 85.37C50.8201 85.7014 50.5514 85.97 50.2201 85.97Z" fill="white"/>
<path d="M58.4201 85.9001C58.1274 85.9001 57.8901 85.6628 57.8901 85.3701C57.8901 85.0774 58.1274 84.8401 58.4201 84.8401C58.7128 84.8401 58.9501 85.0774 58.9501 85.3701C58.9501 85.6628 58.7128 85.9001 58.4201 85.9001Z" fill="white"/>
<path d="M66.6201 85.8401C66.8801 85.8401 67.0901 85.6301 67.0901 85.3701C67.0901 85.1101 66.8801 84.9001 66.6201 84.9001C66.3601 84.9001 66.1501 85.1101 66.1501 85.3701C66.1501 85.6301 66.3601 85.8401 66.6201 85.8401Z" fill="white"/>
<path d="M74.83 85.7702C74.6091 85.7702 74.43 85.5911 74.43 85.3702C74.43 85.1493 74.6091 84.9702 74.83 84.9702C75.0509 84.9702 75.23 85.1493 75.23 85.3702C75.23 85.5911 75.0509 85.7702 74.83 85.7702Z" fill="white"/>
<path d="M83.03 85.71C83.21 85.71 83.36 85.56 83.36 85.38C83.36 85.2 83.21 85.05 83.03 85.05C82.85 85.05 82.7 85.2 82.7 85.38C82.7 85.56 82.84 85.71 83.03 85.71Z" fill="white"/>
<path d="M91.23 85.6401C91.38 85.6401 91.5 85.5201 91.5 85.3701C91.5 85.2201 91.38 85.1001 91.23 85.1001C91.08 85.1001 90.96 85.2201 90.96 85.3701C90.96 85.5201 91.08 85.6401 91.23 85.6401Z" fill="white"/>
<path d="M99.43 85.5702C99.54 85.5702 99.63 85.4802 99.63 85.3702C99.63 85.2602 99.54 85.1702 99.43 85.1702C99.32 85.1702 99.23 85.2602 99.23 85.3702C99.23 85.4902 99.32 85.5702 99.43 85.5702Z" fill="white"/>
<path d="M107.64 85.51C107.71 85.51 107.77 85.45 107.77 85.38C107.77 85.31 107.71 85.25 107.64 85.25C107.57 85.25 107.51 85.31 107.51 85.38C107.51 85.45 107.56 85.51 107.64 85.51Z" fill="white"/>
<path d="M115.84 85.44C115.88 85.44 115.91 85.41 115.91 85.37C115.91 85.33 115.88 85.3 115.84 85.3C115.8 85.3 115.77 85.33 115.77 85.37C115.77 85.41 115.8 85.44 115.84 85.44Z" fill="white"/>
<path d="M1 93.6101C0.447715 93.6101 0 93.1624 0 92.6101C0 92.0578 0.447715 91.6101 1 91.6101C1.55228 91.6101 2 92.0578 2 92.6101C2 93.1624 1.55228 93.6101 1 93.6101Z" fill="white"/>
<path d="M9.21001 93.5502C9.73001 93.5502 10.14 93.1302 10.14 92.6202C10.14 92.1002 9.72001 91.6902 9.21001 91.6902C8.69001 91.6902 8.28001 92.1102 8.28001 92.6202C8.27001 93.1302 8.69001 93.5502 9.21001 93.5502Z" fill="white"/>
<path d="M17.41 93.48C17.89 93.48 18.28 93.09 18.28 92.61C18.28 92.13 17.89 91.74 17.41 91.74C16.93 91.74 16.54 92.13 16.54 92.61C16.54 93.09 16.93 93.48 17.41 93.48Z" fill="white"/>
<path d="M25.61 93.4101C26.05 93.4101 26.41 93.0501 26.41 92.6101C26.41 92.1701 26.05 91.8101 25.61 91.8101C25.17 91.8101 24.81 92.1701 24.81 92.6101C24.81 93.0501 25.17 93.4101 25.61 93.4101Z" fill="white"/>
<path d="M33.81 93.3501C34.22 93.3501 34.54 93.0201 34.54 92.6201C34.54 92.2101 34.21 91.8901 33.81 91.8901C33.41 91.8901 33.08 92.2201 33.08 92.6201C33.08 93.0201 33.41 93.3501 33.81 93.3501Z" fill="white"/>
<path d="M42.0201 93.2802C42.3901 93.2802 42.6901 92.9802 42.6901 92.6102C42.6901 92.2402 42.3901 91.9402 42.0201 91.9402C41.6501 91.9402 41.3501 92.2402 41.3501 92.6102C41.3501 92.9802 41.6501 93.2802 42.0201 93.2802Z" fill="white"/>
<path d="M50.2201 93.21C50.5501 93.21 50.8201 92.94 50.8201 92.61C50.8201 92.28 50.5501 92.01 50.2201 92.01C49.8901 92.01 49.6201 92.28 49.6201 92.61C49.6201 92.94 49.8901 93.21 50.2201 93.21Z" fill="white"/>
<path d="M58.4201 93.1501C58.7101 93.1501 58.9501 92.9101 58.9501 92.6201C58.9501 92.3301 58.7101 92.0901 58.4201 92.0901C58.1301 92.0901 57.8901 92.3301 57.8901 92.6201C57.8901 92.9101 58.1301 93.1501 58.4201 93.1501Z" fill="white"/>
<path d="M66.6201 93.0801C66.8801 93.0801 67.0901 92.8701 67.0901 92.6101C67.0901 92.3501 66.8801 92.1401 66.6201 92.1401C66.3601 92.1401 66.1501 92.3501 66.1501 92.6101C66.1601 92.8701 66.3601 93.0801 66.6201 93.0801Z" fill="white"/>
<path d="M74.83 93.0102C75.05 93.0102 75.23 92.8302 75.23 92.6102C75.23 92.3902 75.05 92.2102 74.83 92.2102C74.61 92.2102 74.43 92.3902 74.43 92.6102C74.43 92.8302 74.6 93.0102 74.83 93.0102Z" fill="white"/>
<path d="M83.03 92.95C83.21 92.95 83.36 92.8 83.36 92.62C83.36 92.44 83.21 92.29 83.03 92.29C82.85 92.29 82.7 92.44 82.7 92.62C82.69 92.8 82.84 92.95 83.03 92.95Z" fill="white"/>
<path d="M91.23 92.8801C91.38 92.8801 91.5 92.7601 91.5 92.6101C91.5 92.4601 91.38 92.3401 91.23 92.3401C91.08 92.3401 90.96 92.4601 90.96 92.6101C90.96 92.7601 91.08 92.8801 91.23 92.8801Z" fill="white"/>
<path d="M99.43 92.8102C99.54 92.8102 99.63 92.7202 99.63 92.6102C99.63 92.5002 99.54 92.4102 99.43 92.4102C99.32 92.4102 99.23 92.5002 99.23 92.6102C99.23 92.7202 99.32 92.8102 99.43 92.8102Z" fill="white"/>
<path d="M107.64 92.75C107.71 92.75 107.77 92.69 107.77 92.62C107.77 92.55 107.71 92.49 107.64 92.49C107.57 92.49 107.51 92.55 107.51 92.62C107.51 92.69 107.56 92.75 107.64 92.75Z" fill="white"/>
<path d="M115.84 92.68C115.88 92.68 115.91 92.65 115.91 92.61C115.91 92.57 115.88 92.54 115.84 92.54C115.8 92.54 115.77 92.57 115.77 92.61C115.77 92.65 115.8 92.68 115.84 92.68Z" fill="white"/>
<path d="M1 100.85C0.447715 100.85 0 100.402 0 99.8501C0 99.2978 0.447715 98.8501 1 98.8501C1.55228 98.8501 2 99.2978 2 99.8501C2 100.402 1.55228 100.85 1 100.85Z" fill="white"/>
<path d="M9.21001 100.78C9.73001 100.78 10.14 100.36 10.14 99.8502C10.14 99.3402 9.72001 98.9202 9.21001 98.9202C8.69001 98.9202 8.28001 99.3402 8.28001 99.8502C8.28001 100.36 8.69001 100.78 9.21001 100.78Z" fill="white"/>
<path d="M17.41 100.72C16.9295 100.72 16.54 100.33 16.54 99.85C16.54 99.3695 16.9295 98.98 17.41 98.98C17.8905 98.98 18.28 99.3695 18.28 99.85C18.28 100.33 17.8905 100.72 17.41 100.72Z" fill="white"/>
<path d="M25.61 100.65C26.05 100.65 26.41 100.29 26.41 99.85C26.41 99.41 26.05 99.05 25.61 99.05C25.17 99.05 24.81 99.41 24.81 99.85C24.81 100.29 25.17 100.65 25.61 100.65Z" fill="white"/>
<path d="M33.81 100.58C33.4069 100.58 33.08 100.253 33.08 99.8501C33.08 99.4469 33.4069 99.1201 33.81 99.1201C34.2132 99.1201 34.54 99.4469 34.54 99.8501C34.54 100.253 34.2132 100.58 33.81 100.58Z" fill="white"/>
<path d="M42.0201 100.52C42.3901 100.52 42.6901 100.22 42.6901 99.8502C42.6901 99.4802 42.3901 99.1802 42.0201 99.1802C41.6501 99.1802 41.3501 99.4802 41.3501 99.8502C41.3501 100.22 41.6501 100.52 42.0201 100.52Z" fill="white"/>
<path d="M50.2201 100.45C49.8887 100.45 49.6201 100.181 49.6201 99.85C49.6201 99.5186 49.8887 99.25 50.2201 99.25C50.5514 99.25 50.8201 99.5186 50.8201 99.85C50.8201 100.181 50.5514 100.45 50.2201 100.45Z" fill="white"/>
<path d="M58.4201 100.38C58.1274 100.38 57.8901 100.143 57.8901 99.8501C57.8901 99.5574 58.1274 99.3201 58.4201 99.3201C58.7128 99.3201 58.9501 99.5574 58.9501 99.8501C58.9501 100.143 58.7128 100.38 58.4201 100.38Z" fill="white"/>
<path d="M66.6201 100.32C66.8801 100.32 67.0901 100.11 67.0901 99.8501C67.0901 99.5901 66.8801 99.3801 66.6201 99.3801C66.3601 99.3801 66.1501 99.5901 66.1501 99.8501C66.1601 100.11 66.3601 100.32 66.6201 100.32Z" fill="white"/>
<path d="M74.83 100.25C74.6091 100.25 74.43 100.071 74.43 99.8502C74.43 99.6293 74.6091 99.4502 74.83 99.4502C75.0509 99.4502 75.23 99.6293 75.23 99.8502C75.23 100.071 75.0509 100.25 74.83 100.25Z" fill="white"/>
<path d="M83.03 100.18C83.21 100.18 83.36 100.03 83.36 99.85C83.36 99.67 83.21 99.52 83.03 99.52C82.85 99.52 82.7 99.67 82.7 99.85C82.69 100.03 82.84 100.18 83.03 100.18Z" fill="white"/>
<path d="M91.23 100.12C91.38 100.12 91.5 100 91.5 99.8501C91.5 99.7001 91.38 99.5801 91.23 99.5801C91.08 99.5801 90.96 99.7001 90.96 99.8501C90.96 100 91.08 100.12 91.23 100.12Z" fill="white"/>
<path d="M99.43 100.05C99.54 100.05 99.63 99.9601 99.63 99.8501C99.63 99.7401 99.54 99.6501 99.43 99.6501C99.32 99.6501 99.23 99.7401 99.23 99.8501C99.23 99.9601 99.32 100.05 99.43 100.05Z" fill="white"/>
<path d="M107.64 99.9802C107.71 99.9802 107.77 99.9202 107.77 99.8502C107.77 99.7802 107.71 99.7202 107.64 99.7202C107.57 99.7202 107.51 99.7802 107.51 99.8502C107.51 99.9202 107.56 99.9802 107.64 99.9802Z" fill="white"/>
<path d="M115.84 99.92C115.88 99.92 115.91 99.89 115.91 99.85C115.91 99.81 115.88 99.78 115.84 99.78C115.8 99.78 115.77 99.81 115.77 99.85C115.77 99.89 115.8 99.92 115.84 99.92Z" fill="white"/>
<path d="M1 108.09C0.447715 108.09 0 107.642 0 107.09C0 106.538 0.447715 106.09 1 106.09C1.55228 106.09 2 106.538 2 107.09C2 107.642 1.55228 108.09 1 108.09Z" fill="white"/>
<path d="M9.21001 108.02C9.73001 108.02 10.14 107.6 10.14 107.09C10.14 106.58 9.72001 106.16 9.21001 106.16C8.69001 106.16 8.28001 106.58 8.28001 107.09C8.28001 107.6 8.69001 108.02 9.21001 108.02Z" fill="white"/>
<path d="M17.41 107.96C16.9295 107.96 16.54 107.571 16.54 107.09C16.54 106.61 16.9295 106.22 17.41 106.22C17.8905 106.22 18.28 106.61 18.28 107.09C18.28 107.571 17.8905 107.96 17.41 107.96Z" fill="white"/>
<path d="M25.61 107.89C26.05 107.89 26.41 107.53 26.41 107.09C26.41 106.65 26.05 106.29 25.61 106.29C25.17 106.29 24.81 106.65 24.81 107.09C24.81 107.53 25.17 107.89 25.61 107.89Z" fill="white"/>
<path d="M33.81 107.82C33.4069 107.82 33.08 107.493 33.08 107.09C33.08 106.687 33.4069 106.36 33.81 106.36C34.2132 106.36 34.54 106.687 34.54 107.09C34.54 107.493 34.2132 107.82 33.81 107.82Z" fill="white"/>
<path d="M42.0201 107.75C42.3901 107.75 42.6901 107.45 42.6901 107.08C42.6901 106.71 42.3901 106.41 42.0201 106.41C41.6501 106.41 41.3501 106.71 41.3501 107.08C41.3501 107.45 41.6501 107.75 42.0201 107.75Z" fill="white"/>
<path d="M50.2201 107.69C49.8887 107.69 49.6201 107.421 49.6201 107.09C49.6201 106.759 49.8887 106.49 50.2201 106.49C50.5514 106.49 50.8201 106.759 50.8201 107.09C50.8201 107.421 50.5514 107.69 50.2201 107.69Z" fill="white"/>
<path d="M58.4201 107.62C58.1274 107.62 57.8901 107.383 57.8901 107.09C57.8901 106.797 58.1274 106.56 58.4201 106.56C58.7128 106.56 58.9501 106.797 58.9501 107.09C58.9501 107.383 58.7128 107.62 58.4201 107.62Z" fill="white"/>
<path d="M66.6201 107.55C66.8801 107.55 67.0901 107.34 67.0901 107.08C67.0901 106.82 66.8801 106.61 66.6201 106.61C66.3601 106.61 66.1501 106.82 66.1501 107.08C66.1601 107.34 66.3601 107.55 66.6201 107.55Z" fill="white"/>
<path d="M74.83 107.49C74.6091 107.49 74.43 107.311 74.43 107.09C74.43 106.869 74.6091 106.69 74.83 106.69C75.0509 106.69 75.23 106.869 75.23 107.09C75.23 107.311 75.0509 107.49 74.83 107.49Z" fill="white"/>
<path d="M83.03 107.42C83.21 107.42 83.36 107.27 83.36 107.09C83.36 106.91 83.21 106.76 83.03 106.76C82.85 106.76 82.7 106.91 82.7 107.09C82.69 107.27 82.84 107.42 83.03 107.42Z" fill="white"/>
<path d="M91.23 107.35C91.38 107.35 91.5 107.23 91.5 107.08C91.5 106.93 91.38 106.81 91.23 106.81C91.08 106.81 90.96 106.93 90.96 107.08C90.96 107.23 91.08 107.35 91.23 107.35Z" fill="white"/>
<path d="M99.43 107.29C99.54 107.29 99.63 107.2 99.63 107.09C99.63 106.98 99.54 106.89 99.43 106.89C99.32 106.89 99.23 106.98 99.23 107.09C99.23 107.2 99.32 107.29 99.43 107.29Z" fill="white"/>
<path d="M107.64 107.22C107.71 107.22 107.77 107.16 107.77 107.09C107.77 107.02 107.71 106.96 107.64 106.96C107.57 106.96 107.51 107.02 107.51 107.09C107.51 107.16 107.56 107.22 107.64 107.22Z" fill="white"/>
<path d="M115.84 107.15C115.88 107.15 115.91 107.12 115.91 107.08C115.91 107.04 115.88 107.01 115.84 107.01C115.8 107.01 115.77 107.04 115.77 107.08C115.77 107.12 115.8 107.15 115.84 107.15Z" fill="white"/>
<path d="M1 115.32C0.447715 115.32 0 114.872 0 114.32C0 113.768 0.447715 113.32 1 113.32C1.55228 113.32 2 113.768 2 114.32C2 114.872 1.55228 115.32 1 115.32Z" fill="white"/>
<path d="M9.21001 115.26C9.73001 115.26 10.14 114.84 10.14 114.33C10.14 113.81 9.72001 113.4 9.21001 113.4C8.69001 113.4 8.28001 113.82 8.28001 114.33C8.27001 114.84 8.69001 115.26 9.21001 115.26Z" fill="white"/>
<path d="M17.41 115.19C17.89 115.19 18.28 114.8 18.28 114.32C18.28 113.84 17.89 113.45 17.41 113.45C16.93 113.45 16.54 113.84 16.54 114.32C16.54 114.8 16.93 115.19 17.41 115.19Z" fill="white"/>
<path d="M25.61 115.12C26.05 115.12 26.41 114.76 26.41 114.32C26.41 113.88 26.05 113.52 25.61 113.52C25.17 113.52 24.81 113.88 24.81 114.32C24.81 114.77 25.17 115.12 25.61 115.12Z" fill="white"/>
<path d="M33.81 115.06C34.22 115.06 34.54 114.73 34.54 114.33C34.54 113.93 34.21 113.6 33.81 113.6C33.41 113.6 33.08 113.93 33.08 114.33C33.08 114.73 33.41 115.06 33.81 115.06Z" fill="white"/>
<path d="M42.0201 114.99C42.3901 114.99 42.6901 114.69 42.6901 114.32C42.6901 113.95 42.3901 113.65 42.0201 113.65C41.6501 113.65 41.3501 113.95 41.3501 114.32C41.3501 114.69 41.6501 114.99 42.0201 114.99Z" fill="white"/>
<path d="M50.2201 114.92C50.5501 114.92 50.8201 114.65 50.8201 114.32C50.8201 113.99 50.5501 113.72 50.2201 113.72C49.8901 113.72 49.6201 113.99 49.6201 114.32C49.6201 114.66 49.8901 114.92 50.2201 114.92Z" fill="white"/>
<path d="M58.4201 114.86C58.7101 114.86 58.9501 114.62 58.9501 114.33C58.9501 114.04 58.7101 113.8 58.4201 113.8C58.1301 113.8 57.8901 114.04 57.8901 114.33C57.8901 114.62 58.1301 114.86 58.4201 114.86Z" fill="white"/>
<path d="M66.6201 114.79C66.8801 114.79 67.0901 114.58 67.0901 114.32C67.0901 114.06 66.8801 113.85 66.6201 113.85C66.3601 113.85 66.1501 114.06 66.1501 114.32C66.1601 114.58 66.3601 114.79 66.6201 114.79Z" fill="white"/>
<path d="M74.83 114.72C75.05 114.72 75.23 114.54 75.23 114.32C75.23 114.1 75.05 113.92 74.83 113.92C74.61 113.92 74.43 114.1 74.43 114.32C74.43 114.55 74.6 114.72 74.83 114.72Z" fill="white"/>
<path d="M83.03 114.66C83.21 114.66 83.36 114.51 83.36 114.33C83.36 114.15 83.21 114 83.03 114C82.85 114 82.7 114.15 82.7 114.33C82.69 114.51 82.84 114.66 83.03 114.66Z" fill="white"/>
<path d="M91.23 114.59C91.38 114.59 91.5 114.47 91.5 114.32C91.5 114.17 91.38 114.05 91.23 114.05C91.08 114.05 90.96 114.17 90.96 114.32C90.96 114.47 91.08 114.59 91.23 114.59Z" fill="white"/>
<path d="M99.43 114.52C99.54 114.52 99.63 114.43 99.63 114.32C99.63 114.21 99.54 114.12 99.43 114.12C99.32 114.12 99.23 114.21 99.23 114.32C99.23 114.44 99.32 114.52 99.43 114.52Z" fill="white"/>
<path d="M107.64 114.46C107.71 114.46 107.77 114.4 107.77 114.33C107.77 114.26 107.71 114.2 107.64 114.2C107.57 114.2 107.51 114.26 107.51 114.33C107.51 114.4 107.56 114.46 107.64 114.46Z" fill="white"/>
<path d="M115.84 114.39C115.88 114.39 115.91 114.36 115.91 114.32C115.91 114.28 115.88 114.25 115.84 114.25C115.8 114.25 115.77 114.28 115.77 114.32C115.77 114.36 115.8 114.39 115.84 114.39Z" fill="white"/>
<path d="M1 122.56C0.447715 122.56 0 122.112 0 121.56C0 121.008 0.447715 120.56 1 120.56C1.55228 120.56 2 121.008 2 121.56C2 122.112 1.55228 122.56 1 122.56Z" fill="white"/>
<path d="M9.21001 122.5C9.73001 122.5 10.14 122.08 10.14 121.57C10.14 121.06 9.72001 120.64 9.21001 120.64C8.69001 120.64 8.28001 121.06 8.28001 121.57C8.28001 122.08 8.69001 122.5 9.21001 122.5Z" fill="white"/>
<path d="M17.41 122.43C16.9295 122.43 16.54 122.04 16.54 121.56C16.54 121.079 16.9295 120.69 17.41 120.69C17.8905 120.69 18.28 121.079 18.28 121.56C18.28 122.04 17.8905 122.43 17.41 122.43Z" fill="white"/>
<path d="M25.61 122.36C25.1682 122.36 24.81 122.002 24.81 121.56C24.81 121.118 25.1682 120.76 25.61 120.76C26.0519 120.76 26.41 121.118 26.41 121.56C26.41 122.002 26.0519 122.36 25.61 122.36Z" fill="white"/>
<path d="M33.81 122.29C33.4069 122.29 33.08 121.963 33.08 121.56C33.08 121.157 33.4069 120.83 33.81 120.83C34.2132 120.83 34.54 121.157 34.54 121.56C34.54 121.963 34.2132 122.29 33.81 122.29Z" fill="white"/>
<path d="M41.3467 121.614C41.3204 121.245 41.5984 120.925 41.9675 120.899C42.3366 120.872 42.6571 121.15 42.6833 121.519C42.7096 121.889 42.4316 122.209 42.0625 122.235C41.6934 122.261 41.3729 121.984 41.3467 121.614Z" fill="white"/>
<path d="M50.2201 122.16C49.8887 122.16 49.6201 121.891 49.6201 121.56C49.6201 121.229 49.8887 120.96 50.2201 120.96C50.5514 120.96 50.8201 121.229 50.8201 121.56C50.8201 121.891 50.5514 122.16 50.2201 122.16Z" fill="white"/>
<path d="M58.4201 122.09C58.1274 122.09 57.8901 121.853 57.8901 121.56C57.8901 121.267 58.1274 121.03 58.4201 121.03C58.7128 121.03 58.9501 121.267 58.9501 121.56C58.9501 121.853 58.7128 122.09 58.4201 122.09Z" fill="white"/>
<path d="M66.6201 122.03C66.8801 122.03 67.0901 121.82 67.0901 121.56C67.0901 121.3 66.8801 121.09 66.6201 121.09C66.3601 121.09 66.1501 121.3 66.1501 121.56C66.1501 121.82 66.3601 122.03 66.6201 122.03Z" fill="white"/>
<path d="M74.83 121.96C74.6091 121.96 74.43 121.781 74.43 121.56C74.43 121.339 74.6091 121.16 74.83 121.16C75.0509 121.16 75.23 121.339 75.23 121.56C75.23 121.781 75.0509 121.96 74.83 121.96Z" fill="white"/>
<path d="M83.03 121.9C83.21 121.9 83.36 121.75 83.36 121.57C83.36 121.39 83.21 121.24 83.03 121.24C82.85 121.24 82.7 121.39 82.7 121.57C82.69 121.75 82.84 121.9 83.03 121.9Z" fill="white"/>
<path d="M91.23 121.83C91.38 121.83 91.5 121.71 91.5 121.56C91.5 121.41 91.38 121.29 91.23 121.29C91.08 121.29 90.96 121.41 90.96 121.56C90.96 121.71 91.08 121.83 91.23 121.83Z" fill="white"/>
<path d="M99.43 121.76C99.54 121.76 99.63 121.67 99.63 121.56C99.63 121.45 99.54 121.36 99.43 121.36C99.32 121.36 99.23 121.45 99.23 121.56C99.23 121.67 99.32 121.76 99.43 121.76Z" fill="white"/>
<path d="M107.64 121.7C107.71 121.7 107.77 121.64 107.77 121.57C107.77 121.5 107.71 121.44 107.64 121.44C107.57 121.44 107.51 121.5 107.51 121.57C107.51 121.64 107.56 121.7 107.64 121.7Z" fill="white"/>
<path d="M115.84 121.63C115.88 121.63 115.91 121.6 115.91 121.56C115.91 121.52 115.88 121.49 115.84 121.49C115.8 121.49 115.77 121.52 115.77 121.56C115.77 121.6 115.8 121.63 115.84 121.63Z" fill="white"/>
<path d="M1 129.8C0.447715 129.8 0 129.352 0 128.8C0 128.248 0.447715 127.8 1 127.8C1.55228 127.8 2 128.248 2 128.8C2 129.352 1.55228 129.8 1 129.8Z" fill="white"/>
<path d="M9.21001 129.73C9.73001 129.73 10.14 129.31 10.14 128.8C10.14 128.28 9.72001 127.87 9.21001 127.87C8.69001 127.87 8.28001 128.29 8.28001 128.8C8.27001 129.32 8.69001 129.73 9.21001 129.73Z" fill="white"/>
<path d="M17.41 129.67C16.9295 129.67 16.54 129.28 16.54 128.8C16.54 128.319 16.9295 127.93 17.41 127.93C17.8905 127.93 18.28 128.319 18.28 128.8C18.28 129.28 17.8905 129.67 17.41 129.67Z" fill="white"/>
<path d="M25.61 129.6C26.05 129.6 26.41 129.24 26.41 128.8C26.41 128.36 26.05 128 25.61 128C25.17 128 24.81 128.36 24.81 128.8C24.81 129.24 25.17 129.6 25.61 129.6Z" fill="white"/>
<path d="M33.81 129.53C33.4069 129.53 33.08 129.203 33.08 128.8C33.08 128.397 33.4069 128.07 33.81 128.07C34.2132 128.07 34.54 128.397 34.54 128.8C34.54 129.203 34.2132 129.53 33.81 129.53Z" fill="white"/>
<path d="M42.0201 129.47C42.3901 129.47 42.6901 129.17 42.6901 128.8C42.6901 128.43 42.3901 128.13 42.0201 128.13C41.6501 128.13 41.3501 128.43 41.3501 128.8C41.3501 129.17 41.6501 129.47 42.0201 129.47Z" fill="white"/>
<path d="M50.2201 129.4C49.8887 129.4 49.6201 129.131 49.6201 128.8C49.6201 128.469 49.8887 128.2 50.2201 128.2C50.5514 128.2 50.8201 128.469 50.8201 128.8C50.8201 129.131 50.5514 129.4 50.2201 129.4Z" fill="white"/>
<path d="M58.4201 129.33C58.7101 129.33 58.9501 129.09 58.9501 128.8C58.9501 128.51 58.7101 128.27 58.4201 128.27C58.1301 128.27 57.8901 128.51 57.8901 128.8C57.8901 129.09 58.1301 129.33 58.4201 129.33Z" fill="white"/>
<path d="M66.6201 129.27C66.8801 129.27 67.0901 129.06 67.0901 128.8C67.0901 128.54 66.8801 128.33 66.6201 128.33C66.3601 128.33 66.1501 128.54 66.1501 128.8C66.1601 129.06 66.3601 129.27 66.6201 129.27Z" fill="white"/>
<path d="M74.83 129.2C74.6091 129.2 74.43 129.021 74.43 128.8C74.43 128.579 74.6091 128.4 74.83 128.4C75.0509 128.4 75.23 128.579 75.23 128.8C75.23 129.021 75.0509 129.2 74.83 129.2Z" fill="white"/>
<path d="M83.03 129.13C83.21 129.13 83.36 128.98 83.36 128.8C83.36 128.62 83.21 128.47 83.03 128.47C82.85 128.47 82.7 128.62 82.7 128.8C82.69 128.98 82.84 129.13 83.03 129.13Z" fill="white"/>
<path d="M91.23 129.07C91.38 129.07 91.5 128.95 91.5 128.8C91.5 128.65 91.38 128.53 91.23 128.53C91.08 128.53 90.96 128.65 90.96 128.8C90.96 128.95 91.08 129.07 91.23 129.07Z" fill="white"/>
<path d="M99.43 129C99.54 129 99.63 128.91 99.63 128.8C99.63 128.69 99.54 128.6 99.43 128.6C99.32 128.6 99.23 128.69 99.23 128.8C99.23 128.91 99.32 129 99.43 129Z" fill="white"/>
<path d="M107.64 128.93C107.71 128.93 107.77 128.87 107.77 128.8C107.77 128.73 107.71 128.67 107.64 128.67C107.57 128.67 107.51 128.73 107.51 128.8C107.51 128.87 107.56 128.93 107.64 128.93Z" fill="white"/>
<path d="M115.84 128.87C115.88 128.87 115.91 128.84 115.91 128.8C115.91 128.76 115.88 128.73 115.84 128.73C115.8 128.73 115.77 128.76 115.77 128.8C115.77 128.84 115.8 128.87 115.84 128.87Z" fill="white"/>
<path d="M1 137.04C0.447715 137.04 0 136.592 0 136.04C0 135.488 0.447715 135.04 1 135.04C1.55228 135.04 2 135.488 2 136.04C2 136.592 1.55228 137.04 1 137.04Z" fill="white"/>
<path d="M9.21001 136.97C9.73001 136.97 10.14 136.55 10.14 136.04C10.14 135.52 9.72001 135.11 9.21001 135.11C8.69001 135.11 8.28001 135.53 8.28001 136.04C8.27001 136.55 8.69001 136.97 9.21001 136.97Z" fill="white"/>
<path d="M17.41 136.91C16.9295 136.91 16.54 136.52 16.54 136.04C16.54 135.559 16.9295 135.17 17.41 135.17C17.8905 135.17 18.28 135.559 18.28 136.04C18.28 136.52 17.8905 136.91 17.41 136.91Z" fill="white"/>
<path d="M25.61 136.84C26.05 136.84 26.41 136.48 26.41 136.04C26.41 135.6 26.05 135.24 25.61 135.24C25.17 135.24 24.81 135.6 24.81 136.04C24.81 136.48 25.17 136.84 25.61 136.84Z" fill="white"/>
<path d="M33.81 136.77C33.4069 136.77 33.08 136.443 33.08 136.04C33.08 135.637 33.4069 135.31 33.81 135.31C34.2132 135.31 34.54 135.637 34.54 136.04C34.54 136.443 34.2132 136.77 33.81 136.77Z" fill="white"/>
<path d="M42.0201 136.7C42.3901 136.7 42.6901 136.4 42.6901 136.03C42.6901 135.66 42.3901 135.36 42.0201 135.36C41.6501 135.36 41.3501 135.66 41.3501 136.03C41.3501 136.4 41.6501 136.7 42.0201 136.7Z" fill="white"/>
<path d="M50.2201 136.64C50.5501 136.64 50.8201 136.37 50.8201 136.04C50.8201 135.71 50.5501 135.44 50.2201 135.44C49.8901 135.44 49.6201 135.71 49.6201 136.04C49.6201 136.37 49.8901 136.64 50.2201 136.64Z" fill="white"/>
<path d="M58.4201 136.57C58.7101 136.57 58.9501 136.33 58.9501 136.04C58.9501 135.75 58.7101 135.51 58.4201 135.51C58.1301 135.51 57.8901 135.75 57.8901 136.04C57.8901 136.33 58.1301 136.57 58.4201 136.57Z" fill="white"/>
<path d="M66.6201 136.5C66.8801 136.5 67.0901 136.29 67.0901 136.03C67.0901 135.77 66.8801 135.56 66.6201 135.56C66.3601 135.56 66.1501 135.77 66.1501 136.03C66.1601 136.29 66.3601 136.5 66.6201 136.5Z" fill="white"/>
<path d="M74.83 136.44C75.05 136.44 75.23 136.26 75.23 136.04C75.23 135.82 75.05 135.64 74.83 135.64C74.61 135.64 74.43 135.82 74.43 136.04C74.43 136.26 74.6 136.44 74.83 136.44Z" fill="white"/>
<path d="M83.03 136.37C83.21 136.37 83.36 136.22 83.36 136.04C83.36 135.86 83.21 135.71 83.03 135.71C82.85 135.71 82.7 135.86 82.7 136.04C82.69 136.22 82.84 136.37 83.03 136.37Z" fill="white"/>
<path d="M91.23 136.3C91.38 136.3 91.5 136.18 91.5 136.03C91.5 135.88 91.38 135.76 91.23 135.76C91.08 135.76 90.96 135.88 90.96 136.03C90.96 136.18 91.08 136.3 91.23 136.3Z" fill="white"/>
<path d="M99.43 136.24C99.54 136.24 99.63 136.15 99.63 136.04C99.63 135.93 99.54 135.84 99.43 135.84C99.32 135.84 99.23 135.93 99.23 136.04C99.23 136.15 99.32 136.24 99.43 136.24Z" fill="white"/>
<path d="M107.64 136.17C107.71 136.17 107.77 136.11 107.77 136.04C107.77 135.97 107.71 135.91 107.64 135.91C107.57 135.91 107.51 135.97 107.51 136.04C107.51 136.11 107.56 136.17 107.64 136.17Z" fill="white"/>
<path d="M115.84 136.1C115.88 136.1 115.91 136.07 115.91 136.03C115.91 135.99 115.88 135.96 115.84 135.96C115.8 135.96 115.77 135.99 115.77 136.03C115.77 136.07 115.8 136.1 115.84 136.1Z" fill="white"/>
</g>
<circle opacity="0.5" cx="72.001" cy="46" r="46" fill="#295AC6"/>
<path fill-rule="evenodd" clip-rule="evenodd" d="M94.501 108.459C110.805 108.459 124.022 95.1485 124.022 78.7294C124.022 62.3103 110.805 49 94.501 49C78.197 49 64.98 62.3103 64.98 78.7294C64.98 95.1485 78.197 108.459 94.501 108.459ZM84.1367 66.3812H83.8474V68.8212H84.1367C84.7353 68.8212 85.2716 69.3026 85.2716 69.8566V88.7963C85.2716 89.3877 84.7353 89.8317 84.1367 89.8317H83.8474V92.2738H84.1367C86.2507 92.2738 87.9442 90.7197 87.9442 88.7963V69.8566C87.9442 67.9353 86.2507 66.3812 84.1367 66.3812ZM81.698 68.8212C81.0791 68.8212 80.5747 69.3026 80.5747 69.8566V88.7963C80.5747 89.3877 81.0791 89.8317 81.698 89.8317H82.0064V92.2738H81.698C79.6474 92.2738 77.9096 90.7197 77.9096 88.7963V69.8566C77.9096 67.9353 79.6474 66.3812 81.698 66.3812H82.0064V68.8212H81.698ZM99.8289 92.6849L96.8774 81.3825H94.2982L97.2518 92.6849H99.8289ZM90.2015 75.0121H92.4548V66.3812H90.2015V75.0121ZM92.7518 92.2738V79.4385H96.2798L95.8335 77.9197L99.829 66.3812H97.1936L93.7082 77.181H90.2015V92.2738H92.7518ZM107.999 80.8984C108.906 82.0246 109.25 83.4145 109.25 84.8802V89.3556C109.25 91.3107 107.676 92.8904 105.795 92.8904H104.101C102.182 92.8904 100.646 91.3107 100.646 89.3556V85.3316H103.07V89.3556C103.07 89.9567 103.555 90.408 104.101 90.408H105.795C106.341 90.408 106.828 89.9567 106.828 89.3556V84.8802C106.828 83.9417 106.644 83.0749 106.04 82.3621L105.899 82.1722V78.3L107.999 80.8984ZM101.858 76.8475L104.02 79.533V75.6186L103.838 75.3971C103.252 74.651 103.07 73.8317 103.07 72.9017V69.8818C103.07 69.3238 103.555 68.8389 104.101 68.8389H105.795C106.341 68.8389 106.828 69.3238 106.828 69.8818V72.7888H109.25V69.8818C109.25 67.9465 107.676 66.3812 105.795 66.3812H104.101C102.22 66.3812 100.646 67.982 100.646 69.8818V72.9017C100.646 74.3521 100.97 75.7335 101.858 76.8475Z" fill="white"/>
<defs>
<clipPath id="clip0">
<rect width="124.04" height="125.04" fill="white" transform="matrix(-1 0 0 1 124.04 12)"/>
</clipPath>
</defs>
</svg>
