<svg width="57" height="54" viewBox="0 0 57 54" fill="none" xmlns="http://www.w3.org/2000/svg">
<path d="M25.2581 41.1707C28.4091 42.6403 30.5048 43.6176 30.1645 45.5799C29.5623 49.0516 14.6916 52.4091 5.80738 54C2.37922 52.3421 0 48.7071 0 44.4895V10.4681C0 4.68673 4.47065 0 9.98548 0H47.0149C48.8091 0 50.4927 0.496039 51.9478 1.36443C34.1717 5.27658 2.82926 15.8711 9.15335 27.2607C13.9482 35.8962 20.705 39.0473 25.2581 41.1707Z" fill="#fff"/>
<path d="M28.7082 53.431C43.0624 46.4523 38.0696 42.3086 25.7958 37.5108C40.1499 41.4363 44.3106 48.197 28.7082 53.431Z" fill="#fff"/>
<path d="M28.943 30.1438C17.6823 24.8618 19.3467 20.282 28.9431 14.8298C17.1733 19.7109 16.6694 26.7666 28.943 30.1438Z" fill="#fff"/>
<path d="M54.668 3.74414C53.4203 4.28863 52.0895 4.85905 50.7075 5.45141C34.4354 12.4261 11.0654 22.4431 32.6601 29.005C33.9432 29.3949 35.2197 29.7712 36.4787 30.1424C45.7387 32.8725 54.0452 35.3215 56.9997 40.8078V10.4677C56.9997 7.90801 56.1233 5.56291 54.668 3.74414Z" fill="#fff"/>
</svg>
