<svg width="32" height="33" viewBox="0 0 32 33" fill="none" xmlns="http://www.w3.org/2000/svg">
<path fill-rule="evenodd" clip-rule="evenodd" d="M16 32.2259C24.8366 32.2259 32 25.0119 32 16.1129C32 7.21401 24.8366 0 16 0C7.16344 0 0 7.21401 0 16.1129C0 25.0119 7.16344 32.2259 16 32.2259ZM10.3839 9.42035H10.2271V10.7428H10.3839C10.7084 10.7428 10.999 11.0037 10.999 11.304V21.5691C10.999 21.8896 10.7084 22.1302 10.3839 22.1302H10.2271V23.4538H10.3839C11.5297 23.4538 12.4475 22.6115 12.4475 21.5691V11.304C12.4475 10.2627 11.5297 9.42035 10.3839 9.42035ZM9.0609 10.7428C8.72545 10.7428 8.45208 11.0037 8.45208 11.304V21.5691C8.45208 21.8896 8.72545 22.1302 9.0609 22.1302H9.22803V23.4538H9.0609C7.9495 23.4538 7.00762 22.6115 7.00762 21.5691V11.304C7.00762 10.2627 7.9495 9.42035 9.0609 9.42035H9.22803V10.7428H9.0609ZM18.8863 23.6766L17.2866 17.5509H15.8887L17.4895 23.6766H18.8863ZM13.6692 14.0982H14.8904V9.42035H13.6692V14.0982ZM15.0514 23.4538V16.4973H16.9635L16.7216 15.6741L18.8872 9.42035H17.4588L15.5698 15.2737H13.6692V23.4538H15.0514ZM23.3159 17.2885C23.8075 17.8989 23.9936 18.6522 23.9936 19.4467V21.8723C23.9936 22.9319 23.1408 23.788 22.1215 23.788H21.2029C20.1629 23.788 19.3308 22.9319 19.3308 21.8723V19.6913H20.6446V21.8723C20.6446 22.198 20.9073 22.4427 21.2029 22.4427H22.1215C22.4171 22.4427 22.6809 22.198 22.6809 21.8723V19.4467C22.6809 18.938 22.5813 18.4682 22.254 18.0818L22.1773 17.979V15.8803L23.3159 17.2885ZM19.9877 15.0929L21.1591 16.5485V14.4269L21.0606 14.3068C20.7431 13.9025 20.6446 13.4584 20.6446 12.9544V11.3176C20.6446 11.0152 20.9073 10.7524 21.2029 10.7524H22.1215C22.4171 10.7524 22.6809 11.0152 22.6809 11.3176V12.8932H23.9936V11.3176C23.9936 10.2687 23.1408 9.42035 22.1215 9.42035H21.2029C20.1837 9.42035 19.3308 10.288 19.3308 11.3176V12.9544C19.3308 13.7405 19.506 14.4892 19.9877 15.0929Z" fill="#fff"/>
</svg>
