<svg width="129" height="95" viewBox="0 0 129 95" fill="none" xmlns="http://www.w3.org/2000/svg">
<g clip-path="url(#clip0_1_3399)">
<path d="M6.60047 54.1385C5.95547 49.1622 6.14897 43.9285 8.14847 39.3169C10.148 34.7052 14.19 30.8014 19.1565 29.8791C27.2835 28.3561 34.916 34.8554 43.1935 34.791C51.8365 34.7267 58.695 27.7127 64.0055 20.8917C69.316 14.0708 74.8845 6.45617 83.248 4.26831C89.44 2.63815 96.191 4.46136 101.523 8.00053C106.855 11.5397 110.983 16.6447 114.509 21.9642C117.648 26.726 120.507 32.2814 119.54 37.9012C118.873 41.7836 116.465 45.1082 114.659 48.6045C112.853 52.1008 111.649 56.3907 113.434 59.9084C115.691 64.3485 122.163 66.3218 122.7 71.2767C123.001 74.0866 121.088 76.7463 118.637 78.1834C116.207 79.6205 113.326 80.0495 110.531 80.4785C92.7295 83.1168 74.863 85.7766 56.8675 86.8276C47.902 87.3424 38.915 87.4925 29.9495 86.9992C27.09 86.849 24.725 86.656 22.5965 84.5968C20.339 82.409 18.1675 79.835 16.254 77.3469C11.0725 70.6332 7.67547 62.5467 6.60047 54.1385Z" fill="#F7F7FA"/>
<path d="M9.84702 9.2663C14.9855 13.02 20.038 15.2078 20.0595 15.2293C20.081 15.2722 17.6515 10.0599 12.1905 6.09177C6.77252 2.08071 0.924521 1.26562 0.967521 1.26562C0.989021 1.28707 4.75152 5.51263 9.84702 9.2663Z" fill="#BDBDBD"/>
<path d="M13.6957 17.9322C18.1031 18.018 21.6292 16.7739 21.6292 16.7525C21.6507 16.7525 17.6731 14.5646 13.1581 14.5861C8.64315 14.5861 5.50415 16.5809 5.50415 16.5595C5.52565 16.5595 9.28815 17.825 13.6957 17.9322Z" fill="#BDBDBD"/>
<path d="M22.1881 30.3721C27.6061 30.5651 32.0351 29.0422 32.0351 28.9993C32.0566 28.9993 27.2621 26.0607 21.7151 26.0821C16.2111 26.0821 12.2766 28.6775 12.2766 28.6346C12.2981 28.6346 16.7701 30.179 22.1881 30.3721Z" fill="#BDBDBD"/>
<path d="M20.038 24.2171C24.4025 24.7533 28.036 23.8524 28.036 23.8524C28.0575 23.8524 24.338 21.2999 19.866 20.8495C15.394 20.399 12.0615 22.0721 12.0615 22.0507C12.1045 22.0507 15.6735 23.6808 20.038 24.2171Z" fill="#BDBDBD"/>
<path d="M19.3717 8.79439C20.4252 13.6205 22.5752 17.6745 22.5752 17.696C22.5537 17.696 24.1017 14.0495 23.1772 9.09469C22.2527 4.11839 18.9632 -0.0213666 18.9632 8.29805e-05C18.9417 8.29805e-05 18.3182 3.9468 19.3717 8.79439Z" fill="#BDBDBD"/>
<path d="M31.0889 19.5186C31.3899 25.3529 32.9809 30.4793 32.9809 30.5007C32.9594 30.5007 35.5609 26.5969 35.4534 20.6125C35.3674 14.6281 32.2499 9.11555 32.2499 9.15845C32.2284 9.15845 30.8094 13.6843 31.0889 19.5186Z" fill="#BDBDBD"/>
<path d="M26.1656 16.2588C26.5741 20.3128 28.0576 23.8305 28.0576 23.852C28.0361 23.852 29.5841 20.9348 29.2616 16.7951C28.9391 12.6553 26.7246 8.98743 26.7031 9.00888C26.7031 9.00888 25.7571 12.1834 26.1656 16.2588Z" fill="#BDBDBD"/>
<path d="M27.0901 36.078C32.1211 36.8287 36.3996 35.8635 36.3996 35.8421C36.4211 35.8421 32.2501 32.6246 27.0901 32.0455C21.9516 31.4449 18.0171 33.3968 18.0171 33.3754C18.0386 33.3539 22.0591 35.3058 27.0901 36.078Z" fill="#BDBDBD"/>
<path d="M33.6689 49.956C38.8504 51.6076 43.5374 51.3288 43.5374 51.3073C43.5589 51.3073 39.7104 47.1676 34.3999 45.709C29.0894 44.229 24.6174 45.6661 24.6174 45.6447C24.6174 45.6447 28.5089 48.3044 33.6689 49.956Z" fill="#BDBDBD"/>
<path d="M33.2605 43.4569C37.324 45.1299 41.065 45.2586 41.065 45.2586C41.0865 45.2586 38.2055 41.8053 34.0345 40.1751C29.8635 38.5449 26.2085 39.2742 26.2085 39.2528C26.23 39.2528 29.2185 41.7624 33.2605 43.4569Z" fill="#BDBDBD"/>
<path d="M36.8295 28.5067C36.507 33.3972 37.453 37.8587 37.453 37.8802C37.4315 37.8802 39.9255 34.7915 40.377 29.7937C40.85 24.796 38.872 19.9698 38.872 19.9913C38.872 19.9913 37.152 23.5948 36.8295 28.5067Z" fill="#BDBDBD"/>
<path d="M45.1716 41.9121C43.8816 47.5962 44.0536 53.0015 44.0321 53.023C44.0106 53.023 47.5581 49.9342 49.0846 44.1429C50.6326 38.3515 49.1276 32.2384 49.1061 32.2598C49.0846 32.2598 46.4831 36.2065 45.1716 41.9121Z" fill="#BDBDBD"/>
<path d="M41.2155 34.4905C40.4415 40.0674 41.065 45.2367 41.065 45.2367C41.0435 45.2367 44.204 41.9764 45.1715 36.2923C46.1605 30.6082 44.247 24.8597 44.2255 24.9026C44.204 24.9026 42.011 28.9136 41.2155 34.4905Z" fill="#BDBDBD"/>
<path d="M18.017 13.084C22.7255 17.2023 26.961 21.771 30.702 26.7259C34.4215 31.6807 37.6465 37.0002 40.3125 42.5985C42.957 48.2183 45.0425 54.0955 46.526 60.1872C47.257 63.233 47.859 66.3217 48.2675 69.4534C48.4825 71.0192 48.6545 72.6064 48.7835 74.1723C48.848 74.9659 48.891 75.7595 48.891 76.5532C48.891 77.3468 48.8695 78.1619 48.805 78.9555C48.676 78.9555 48.547 78.9555 48.418 78.977C48.289 78.1833 48.203 77.3897 48.117 76.6175C48.031 75.8239 47.9665 75.0517 47.902 74.2581C47.773 72.6923 47.601 71.1264 47.4075 69.5821C46.999 66.4719 46.4185 63.4046 45.6875 60.4017C44.247 54.3743 42.183 48.5186 39.5815 42.9417C36.98 37.3649 33.841 32.0668 30.186 27.112C26.531 22.1571 22.3815 17.5669 17.7805 13.3628C17.845 13.277 17.931 13.1698 18.017 13.084Z" fill="#BDBDBD"/>
<path d="M122.722 60.1018C124.356 61.0241 126.657 60.2734 127.603 58.6432C128.549 57.013 128.162 54.8038 126.893 53.431C121.862 47.9184 117.971 57.4206 122.722 60.1018Z" fill="#F7F7FA"/>
<path d="M119.862 92.1045H9.13735C8.83635 92.1045 8.59985 91.8686 8.59985 91.5683V86.6564C8.59985 86.3561 8.83635 86.1201 9.13735 86.1201H119.862C120.163 86.1201 120.4 86.3561 120.4 86.6564V91.5683C120.4 91.8686 120.163 92.1045 119.862 92.1045Z" fill="#BDBDBD"/>
<path d="M24.3164 72.4778V18.6823C24.3164 18.2533 24.6604 17.9102 25.0904 17.9102H103.931C104.361 17.9102 104.705 18.2533 104.705 18.6823V72.4778C104.705 72.9068 104.361 73.25 103.931 73.25H25.0904C24.6604 73.25 24.3164 72.9068 24.3164 72.4778Z" fill="#EEEEEE"/>
<path d="M24.5959 72.7995V19.0041C24.5959 18.5751 24.9399 18.2319 25.3699 18.2319H104.189C104.339 18.2319 104.49 18.2748 104.597 18.3606C104.468 18.1032 104.21 17.9102 103.909 17.9102H25.0904C24.6604 17.9102 24.3164 18.2533 24.3164 18.6823V72.4778C24.3164 72.7566 24.4669 72.9711 24.6604 73.1213C24.6174 73.0355 24.5959 72.9282 24.5959 72.7995Z" fill="#BDBDBD"/>
<path d="M8.87947 85.7122L24.1015 73.4001C24.2305 73.2929 24.4025 73.2285 24.5745 73.2285H104.382C104.554 73.2285 104.726 73.2929 104.855 73.4001L120.077 85.7122C120.636 86.1626 120.314 87.0635 119.604 87.0635H9.37397C8.64297 87.0849 8.32047 86.184 8.87947 85.7122Z" fill="#EEEEEE"/>
<path d="M119.626 86.7421H9.37393C8.96543 86.7421 8.68593 86.4419 8.62143 86.1201C8.51393 86.5706 8.81493 87.0639 9.37393 87.0639H119.647C120.185 87.0639 120.507 86.5491 120.4 86.1201C120.314 86.4633 120.034 86.7421 119.626 86.7421Z" fill="#FAFAFA"/>
<path d="M20.6399 79.7058L26.0149 75.3516H102.985L108.36 79.7058H20.6399Z" fill="#BDBDBD"/>
<path d="M102.147 20.4629H26.875V70.6977H102.147V20.4629Z" fill="#FEFEFE"/>
<path d="M105.715 74.0865L104.877 73.4216C104.748 73.3143 104.576 73.25 104.404 73.25H24.5959C24.4239 73.25 24.2519 73.3143 24.1229 73.4216L23.2844 74.0865H105.715Z" fill="#BDBDBD"/>
<path d="M84.1065 58.1697C94.7612 47.54 94.7612 30.3057 84.1065 19.676C73.4517 9.04622 56.1769 9.04622 45.5221 19.676C34.8674 30.3057 34.8674 47.54 45.5221 58.1697C56.1769 68.7995 73.4517 68.7995 84.1065 58.1697Z" fill="#D8F2E3"/>
<path d="M38.1127 39.5017C38.1127 24.4656 50.3247 12.2823 65.3962 12.2823C72.7707 12.2823 79.4787 15.2208 84.3807 19.9612C79.4142 14.8562 72.4912 11.7031 64.7942 11.7031C49.7227 11.7031 37.5107 23.8865 37.5107 38.9226C37.5107 46.5801 40.6927 53.5083 45.7882 58.4631C41.0582 53.5512 38.1127 46.8804 38.1127 39.5017Z" fill="#B4D8C3"/>
<path d="M59.3333 52.2852L72.3838 65.0691C83.7788 61.8088 92.1208 51.3414 92.1208 38.9221C92.1208 38.6862 92.0993 38.4503 92.0993 38.2143L79.7153 25.8594L59.3333 52.2852Z" fill="#C7E4D3"/>
<path d="M61.0101 52.736C59.9996 52.736 59.0106 52.307 58.3441 51.449L49.4001 40.188C48.2391 38.7294 48.4756 36.5845 49.9591 35.4262C51.4211 34.2679 53.5711 34.5039 54.7321 35.9839L63.6761 47.2449C64.8371 48.7035 64.6006 50.8484 63.1171 52.0067C62.4936 52.5 61.7411 52.736 61.0101 52.736Z" fill="white"/>
<path d="M61.0101 52.7352C60.2791 52.7352 59.5266 52.4993 58.9031 52.0059C57.4411 50.8477 57.1831 48.7242 58.3441 47.2441L74.9206 26.3952C76.0816 24.9366 78.2101 24.6792 79.6936 25.8375C81.1556 26.9958 81.4136 29.1193 80.2526 30.5993L63.6761 51.4482C62.9881 52.3062 61.9991 52.7352 61.0101 52.7352Z" fill="white"/>
</g>
<defs>
<clipPath id="clip0_1_3399">
<rect width="129" height="95" fill="white"/>
</clipPath>
</defs>
</svg>
