<svg width="18" height="18" viewBox="0 0 18 18" fill="none" xmlns="http://www.w3.org/2000/svg">
<g clip-path="url(#clip0_472_10312)">
<path d="M18.3226 8.25H17.5359C17.3718 6.92998 16.7821 5.70306 15.8597 4.76219C14.9373 3.82132 13.7344 3.21989 12.4403 3.0525V2.25C12.4403 2.05109 12.3628 1.86032 12.2249 1.71967C12.087 1.57902 11.9 1.5 11.705 1.5C11.51 1.5 11.323 1.57902 11.1851 1.71967C11.0472 1.86032 10.9697 2.05109 10.9697 2.25V3.0525C9.67556 3.21989 8.47269 3.82132 7.55028 4.76219C6.62786 5.70306 6.03822 6.92998 5.87411 8.25H5.08734C4.89233 8.25 4.70531 8.32902 4.56741 8.46967C4.42952 8.61032 4.35205 8.80109 4.35205 9C4.35205 9.19891 4.42952 9.38968 4.56741 9.53033C4.70531 9.67098 4.89233 9.75 5.08734 9.75H5.87411C6.03822 11.07 6.62786 12.2969 7.55028 13.2378C8.47269 14.1787 9.67556 14.7801 10.9697 14.9475V15.75C10.9697 15.9489 11.0472 16.1397 11.1851 16.2803C11.323 16.421 11.51 16.5 11.705 16.5C11.9 16.5 12.087 16.421 12.2249 16.2803C12.3628 16.1397 12.4403 15.9489 12.4403 15.75V14.9475C13.7344 14.7801 14.9373 14.1787 15.8597 13.2378C16.7821 12.2969 17.3718 11.07 17.5359 9.75H18.3226C18.5176 9.75 18.7047 9.67098 18.8426 9.53033C18.9805 9.38968 19.0579 9.19891 19.0579 9C19.0579 8.80109 18.9805 8.61032 18.8426 8.46967C18.7047 8.32902 18.5176 8.25 18.3226 8.25ZM15.3815 9.75H16.0506C15.8973 10.6698 15.4676 11.5183 14.8208 12.1781C14.1739 12.8378 13.3421 13.2762 12.4403 13.4325V12.75C12.4403 12.5511 12.3628 12.3603 12.2249 12.2197C12.087 12.079 11.9 12 11.705 12C11.51 12 11.323 12.079 11.1851 12.2197C11.0472 12.3603 10.9697 12.5511 10.9697 12.75V13.4325C10.0679 13.2762 9.23603 12.8378 8.58923 12.1781C7.94242 11.5183 7.51265 10.6698 7.3594 9.75H8.02852C8.22353 9.75 8.41056 9.67098 8.54845 9.53033C8.68635 9.38968 8.76381 9.19891 8.76381 9C8.76381 8.80109 8.68635 8.61032 8.54845 8.46967C8.41056 8.32902 8.22353 8.25 8.02852 8.25H7.3594C7.51265 7.33017 7.94242 6.48166 8.58923 5.82192C9.23603 5.16217 10.0679 4.72381 10.9697 4.5675V5.25C10.9697 5.44891 11.0472 5.63968 11.1851 5.78033C11.323 5.92098 11.51 6 11.705 6C11.9 6 12.087 5.92098 12.2249 5.78033C12.3628 5.63968 12.4403 5.44891 12.4403 5.25V4.5675C13.3421 4.72381 14.1739 5.16217 14.8208 5.82192C15.4676 6.48166 15.8973 7.33017 16.0506 8.25H15.3815C15.1864 8.25 14.9994 8.32902 14.8615 8.46967C14.7236 8.61032 14.6462 8.80109 14.6462 9C14.6462 9.19891 14.7236 9.38968 14.8615 9.53033C14.9994 9.67098 15.1864 9.75 15.3815 9.75ZM11.705 8.25C11.5596 8.25 11.4174 8.29399 11.2965 8.3764C11.1756 8.45881 11.0813 8.57594 11.0257 8.71299C10.97 8.85003 10.9555 9.00083 10.9838 9.14632C11.0122 9.2918 11.0822 9.42544 11.1851 9.53033C11.2879 9.63522 11.4189 9.70665 11.5615 9.73559C11.7042 9.76453 11.852 9.74968 11.9864 9.69291C12.1207 9.63614 12.2356 9.54002 12.3164 9.41668C12.3972 9.29334 12.4403 9.14834 12.4403 9C12.4403 8.80109 12.3628 8.61032 12.2249 8.46967C12.087 8.32902 11.9 8.25 11.705 8.25Z" fill="#E8C511"/>
</g>
<defs>
<clipPath id="clip0_472_10312">
<rect width="17.5765" height="18" fill="white" transform="translate(0.0578613)"/>
</clipPath>
</defs>
</svg>
