<svg width="22" height="22" viewBox="0 0 22 22" fill="none" xmlns="http://www.w3.org/2000/svg">
<circle cx="11.0004" cy="12.5384" r="3.84615" stroke="white" stroke-width="2"/>
<path d="M6.8175 3.21115L5.92308 2.76394L6.8175 3.21115ZM21 8.46787L22 8.46787L21 8.46787ZM5 21L5 20L5 21ZM17 21L17 20L17 21ZM21 17L20 17L21 17ZM5.39562e-06 8.46784L5.02266e-06 17L2.00001 17L2.00001 8.46784L5.39562e-06 8.46784ZM17 20L5 20L5 22L17 22L17 20ZM20 8.46787L20 17L22 17L22 8.46787L20 8.46787ZM16.4906 3.59139L16.0769 2.76395L14.2881 3.65837L14.7018 4.48582L16.4906 3.59139ZM11.6048 1.34176e-05L10.3952 8.83478e-06L10.3952 2.00001L11.6048 2.00001L11.6048 1.34176e-05ZM5.92308 2.76394L5.50936 3.59136L7.29822 4.48579L7.71193 3.65837L5.92308 2.76394ZM10.3952 8.83478e-06C8.50137 1.65904e-06 6.77004 1.07001 5.92308 2.76394L7.71193 3.65837C8.22011 2.64201 9.2589 2 10.3952 2.00001L10.3952 8.83478e-06ZM3.85247 6.61538C5.31168 6.61538 6.64564 5.79094 7.29822 4.48579L5.50936 3.59136C5.19557 4.21895 4.55413 4.61538 3.85247 4.61538L3.85247 6.61538ZM18.1475 4.61541C17.4459 4.61541 16.8044 4.21897 16.4906 3.59139L14.7018 4.48582C15.3544 5.79097 16.6883 6.61541 18.1475 6.61541L18.1475 4.61541ZM16.0769 2.76395C15.23 1.07003 13.4987 2.06529e-05 11.6048 1.34176e-05L11.6048 2.00001C12.7411 2.00002 13.7799 2.64202 14.2881 3.65837L16.0769 2.76395ZM22 8.46787C22 6.34021 20.2752 4.61541 18.1475 4.61541L18.1475 6.61541C19.1706 6.61541 20 7.44478 20 8.46787L22 8.46787ZM2.00001 8.46784C2.00001 7.44476 2.82938 6.61538 3.85247 6.61538L3.85247 4.61538C1.72481 4.61538 5.48862e-06 6.34019 5.39562e-06 8.46784L2.00001 8.46784ZM5.02266e-06 17C4.90196e-06 19.7614 2.23858 22 5 22L5 20C3.34315 20 2 18.6568 2.00001 17L5.02266e-06 17ZM17 22C19.7614 22 22 19.7614 22 17L20 17C20 18.6568 18.6569 20 17 20L17 22Z" fill="white"/>
</svg>
