<svg width="30" height="31" viewBox="0 0 30 31" fill="none" xmlns="http://www.w3.org/2000/svg">
<path fill-rule="evenodd" clip-rule="evenodd" d="M8.505 0.998779H21.51C26.595 0.998779 30 4.56878 30 9.87878V22.1353C30 27.4303 26.595 30.9988 21.51 30.9988H8.505C3.42 30.9988 0 27.4303 0 22.1353V9.87878C0 4.56878 3.42 0.998779 8.505 0.998779ZM19.515 20.4988C20.025 19.9903 20.025 19.1653 19.515 18.6553L16.845 15.9853L19.515 13.3138C20.025 12.8053 20.025 11.9653 19.515 11.4553C19.005 10.9438 18.18 10.9438 17.655 11.4553L15 14.1238L12.33 11.4553C11.805 10.9438 10.98 10.9438 10.47 11.4553C9.96005 11.9653 9.96005 12.8053 10.47 13.3138L13.14 15.9853L10.47 18.6403C9.96005 19.1653 9.96005 19.9903 10.47 20.4988C10.725 20.7538 11.07 20.8903 11.4 20.8903C11.745 20.8903 12.075 20.7538 12.33 20.4988L15 17.8453L17.67 20.4988C17.925 20.7703 18.255 20.8903 18.585 20.8903C18.93 20.8903 19.26 20.7538 19.515 20.4988Z" fill="#F23D5B"/>
</svg>
