<svg width="228" height="315" viewBox="0 0 228 315" fill="none" xmlns="http://www.w3.org/2000/svg">
<path d="M23 41.7694V307.231C23 311.523 26.5872 315 31.016 315H219.984C224.413 315 228 311.523 228 307.231V41.7694C228 37.4768 224.413 34 219.984 34H31.016C26.5872 34 23 37.4768 23 41.7694Z" fill="#0E338B"/>
<path d="M0 26.8524V295.148C0 299.486 3.77966 303 8.44616 303H207.554C212.22 303 216 299.486 216 295.148V26.8524C216 22.5139 212.22 19 207.554 19H8.44616C3.77966 19 0 22.5139 0 26.8524Z" fill="#1A49B9"/>
<path d="M137.26 0H9C4.58 0 1 3.58 1 8V281.34C1 285.76 4.58 289.34 9 289.34H197.59C202.01 289.34 205.59 285.76 205.59 281.34V68.32L137.26 0Z" fill="#2D5FD6"/>
<path d="M173.07 194.35H30C27.79 194.35 26 192.56 26 190.35V127C26 124.79 27.79 123 30 123H173.07C175.28 123 177.07 124.79 177.07 127V190.35C177.07 192.56 175.28 194.35 173.07 194.35Z" fill="#5185FF"/>
<path d="M60.05 169.32C61.538 169.32 62.9227 169.051 64.204 168.514C65.4853 167.935 66.6013 167.171 67.552 166.22C68.5027 165.269 69.2467 164.133 69.784 162.81C70.3213 161.487 70.59 160.041 70.59 158.47C70.59 156.941 70.3213 155.515 69.784 154.192C69.2467 152.828 68.5027 151.671 67.552 150.72C66.6013 149.769 65.4853 149.025 64.204 148.488C62.9227 147.909 61.538 147.62 60.05 147.62H55.71V169.32H60.05ZM46.72 138.94H60.05C62.778 138.94 65.32 139.457 67.676 140.49C70.032 141.482 72.0987 142.867 73.876 144.644C75.6533 146.421 77.038 148.488 78.03 150.844C79.0633 153.2 79.58 155.742 79.58 158.47C79.58 161.198 79.0633 163.74 78.03 166.096C77.038 168.452 75.6533 170.519 73.876 172.296C72.0987 174.073 70.032 175.479 67.676 176.512C65.32 177.504 62.778 178 60.05 178H46.72V138.94ZM112.757 158.47C112.757 156.858 112.489 155.37 111.951 154.006C111.414 152.642 110.67 151.464 109.719 150.472C108.81 149.48 107.735 148.715 106.495 148.178C105.255 147.599 103.933 147.31 102.527 147.31C101.122 147.31 99.7993 147.599 98.5593 148.178C97.3193 148.715 96.2239 149.48 95.2733 150.472C94.3639 151.464 93.6406 152.642 93.1033 154.006C92.5659 155.37 92.2973 156.858 92.2973 158.47C92.2973 160.082 92.5659 161.57 93.1033 162.934C93.6406 164.298 94.3639 165.476 95.2733 166.468C96.2239 167.46 97.3193 168.245 98.5593 168.824C99.7993 169.361 101.122 169.63 102.527 169.63C103.933 169.63 105.255 169.361 106.495 168.824C107.735 168.245 108.81 167.46 109.719 166.468C110.67 165.476 111.414 164.298 111.951 162.934C112.489 161.57 112.757 160.082 112.757 158.47ZM121.747 158.47C121.747 161.281 121.231 163.885 120.197 166.282C119.205 168.679 117.841 170.787 116.105 172.606C114.369 174.383 112.323 175.789 109.967 176.822C107.653 177.814 105.173 178.31 102.527 178.31C99.8819 178.31 97.3813 177.814 95.0253 176.822C92.7106 175.789 90.6853 174.383 88.9493 172.606C87.2133 170.787 85.8286 168.679 84.7953 166.282C83.8033 163.885 83.3073 161.281 83.3073 158.47C83.3073 155.701 83.8033 153.117 84.7953 150.72C85.8286 148.281 87.2133 146.173 88.9493 144.396C90.6853 142.577 92.7106 141.172 95.0253 140.18C97.3813 139.147 99.8819 138.63 102.527 138.63C105.173 138.63 107.653 139.147 109.967 140.18C112.323 141.172 114.369 142.577 116.105 144.396C117.841 146.173 119.205 148.281 120.197 150.72C121.231 153.117 121.747 155.701 121.747 158.47ZM144.668 169.63C147.148 169.63 149.091 169.051 150.496 167.894C151.943 166.695 152.893 165.311 153.348 163.74L162.648 164.36C162.193 166.22 161.449 167.997 160.416 169.692C159.383 171.387 158.101 172.875 156.572 174.156C155.043 175.396 153.265 176.409 151.24 177.194C149.256 177.938 147.065 178.31 144.668 178.31C142.023 178.31 139.522 177.814 137.166 176.822C134.851 175.789 132.826 174.383 131.09 172.606C129.354 170.787 127.969 168.679 126.936 166.282C125.944 163.885 125.448 161.281 125.448 158.47C125.448 155.701 125.944 153.117 126.936 150.72C127.969 148.281 129.354 146.173 131.09 144.396C132.826 142.577 134.851 141.172 137.166 140.18C139.522 139.147 142.023 138.63 144.668 138.63C146.983 138.63 149.111 139.023 151.054 139.808C153.038 140.552 154.774 141.565 156.262 142.846C157.791 144.086 159.073 145.553 160.106 147.248C161.139 148.943 161.883 150.72 162.338 152.58L153.038 153.2C152.79 152.415 152.439 151.671 151.984 150.968C151.529 150.265 150.951 149.645 150.248 149.108C149.545 148.571 148.719 148.137 147.768 147.806C146.859 147.475 145.825 147.31 144.668 147.31C143.263 147.31 141.94 147.599 140.7 148.178C139.46 148.715 138.365 149.48 137.414 150.472C136.505 151.464 135.781 152.642 135.244 154.006C134.707 155.37 134.438 156.858 134.438 158.47C134.438 160.082 134.707 161.57 135.244 162.934C135.781 164.298 136.505 165.476 137.414 166.468C138.365 167.46 139.46 168.245 140.7 168.824C141.94 169.361 143.263 169.63 144.668 169.63Z" fill="white"/>
<path d="M137.26 64.32C137.26 66.53 139.05 68.32 141.26 68.32H205.58L137.26 0V64.32Z" fill="#5185FF"/>
</svg>
