<svg width="63" height="88" viewBox="0 0 63 88" fill="none" xmlns="http://www.w3.org/2000/svg">
<g filter="url(#filter0_d_474_11824)">
<path d="M15.973 24.7234C13.327 33.4963 18.1266 42.8049 26.6931 45.5146C28.3502 46.0388 30.0789 46.277 31.7248 46.2578C31.7248 46.2578 32.5861 48.0312 32.5038 53.0077C32.4215 57.9843 29.2116 67.1916 29.2116 67.1916C29.2116 67.1916 32.9995 64.0397 39.5467 52.1905C46.0939 40.3412 46.9952 34.5362 46.9952 34.5362C49.6412 25.7632 44.8416 16.4546 36.275 13.7449C27.7085 11.0352 18.6189 15.9504 15.973 24.7234Z" fill="#E8C512"/>
<path d="M28.4904 66.9402L27.5844 69.5391L29.7001 67.7787L29.2116 67.1916C29.7001 67.7787 29.7004 67.7784 29.7007 67.7782L29.7014 67.7776L29.703 67.7762L29.7074 67.7725L29.7201 67.7617C29.7305 67.7528 29.7444 67.7407 29.762 67.7251C29.797 67.6941 29.8465 67.6494 29.9101 67.5896C30.0372 67.4702 30.2208 67.2907 30.459 67.0405C30.9352 66.5401 31.6297 65.7564 32.5267 64.6035C34.3204 62.298 36.9255 58.5134 40.2151 52.5598C43.5071 46.602 45.3869 42.1506 46.4456 39.1759C46.975 37.6886 47.2991 36.5704 47.4919 35.8178C47.5883 35.4415 47.6518 35.1566 47.6917 34.9627C47.7117 34.8657 47.7257 34.7915 47.735 34.74C47.737 34.729 47.7387 34.7191 47.7403 34.7102C50.472 25.5641 45.4682 15.8518 36.5054 13.0167C27.5191 10.1743 18.0065 15.3361 15.2418 24.5028C12.4792 33.6624 17.4847 43.4029 26.4628 46.2428C28.0166 46.7343 29.6281 46.9855 31.1842 47.0187C31.2461 47.2304 31.3208 47.5244 31.3952 47.9109C31.589 48.9177 31.7806 50.552 31.7402 52.9951C31.7009 55.3751 30.9042 58.836 30.091 61.7614C29.688 63.2112 29.2873 64.5077 28.9873 65.4417C28.8374 65.9085 28.7127 66.2843 28.6258 66.5429C28.5823 66.6721 28.5483 66.7721 28.5252 66.8394L28.499 66.9155L28.4924 66.9344L28.4909 66.939L28.4905 66.94L28.4904 66.9402Z" stroke="white" stroke-width="1.52742"/>
</g>
<ellipse cx="31.3573" cy="29.5" rx="12.2059" ry="12.5" fill="white"/>
<path d="M32.0061 29.1445H29.8323L29.8206 28.0723H31.719C32.0393 28.0723 32.3108 28.0254 32.5334 27.9316C32.76 27.834 32.9319 27.6953 33.0491 27.5156C33.1663 27.332 33.2249 27.1113 33.2249 26.8535C33.2249 26.5684 33.1702 26.3359 33.0608 26.1562C32.9514 25.9766 32.7834 25.8457 32.5569 25.7637C32.3342 25.6816 32.0491 25.6406 31.7014 25.6406H30.2776V33H28.8069V24.4688H31.7014C32.1702 24.4688 32.5881 24.5137 32.9553 24.6035C33.3264 24.6934 33.6409 24.834 33.8987 25.0254C34.1604 25.2129 34.3577 25.4512 34.4905 25.7402C34.6272 26.0293 34.6956 26.373 34.6956 26.7715C34.6956 27.123 34.6116 27.4453 34.4436 27.7383C34.2756 28.0273 34.0276 28.2637 33.6995 28.4473C33.3713 28.6309 32.9631 28.7402 32.4749 28.7754L32.0061 29.1445ZM31.9417 33H29.3694L30.0315 31.834H31.9417C32.2737 31.834 32.551 31.7793 32.7737 31.6699C32.9963 31.5566 33.1624 31.4023 33.2717 31.207C33.385 31.0078 33.4417 30.7754 33.4417 30.5098C33.4417 30.2324 33.3928 29.9922 33.2952 29.7891C33.1975 29.582 33.0432 29.4238 32.8323 29.3145C32.6213 29.2012 32.3459 29.1445 32.0061 29.1445H30.3538L30.3655 28.0723H32.5159L32.8499 28.4766C33.3186 28.4922 33.7034 28.5957 34.0042 28.7871C34.3088 28.9785 34.5354 29.2266 34.6838 29.5312C34.8323 29.8359 34.9065 30.1641 34.9065 30.5156C34.9065 31.0586 34.7874 31.5137 34.5491 31.8809C34.3147 32.248 33.9768 32.5273 33.5354 32.7188C33.094 32.9062 32.5627 33 31.9417 33Z" fill="black"/>
<defs>
<filter id="filter0_d_474_11824" x="0.48088" y="0.270612" width="62.0063" height="86.8903" filterUnits="userSpaceOnUse" color-interpolation-filters="sRGB">
<feFlood flood-opacity="0" result="BackgroundImageFix"/>
<feColorMatrix in="SourceAlpha" type="matrix" values="0 0 0 0 0 0 0 0 0 0 0 0 0 0 0 0 0 0 127 0" result="hardAlpha"/>
<feOffset dy="2.03656"/>
<feGaussianBlur stdDeviation="6.61881"/>
<feComposite in2="hardAlpha" operator="out"/>
<feColorMatrix type="matrix" values="0 0 0 0 0 0 0 0 0 0 0 0 0 0 0 0 0 0 0.25 0"/>
<feBlend mode="normal" in2="BackgroundImageFix" result="effect1_dropShadow_474_11824"/>
<feBlend mode="normal" in="SourceGraphic" in2="effect1_dropShadow_474_11824" result="shape"/>
</filter>
</defs>
</svg>
