<svg width="63" height="88" viewBox="0 0 63 88" fill="none" xmlns="http://www.w3.org/2000/svg">
<g filter="url(#filter0_d_678_617)">
<path d="M15.7041 24.7234C13.0581 33.4963 17.8576 42.8049 26.4242 45.5146C28.0813 46.0388 29.81 46.277 31.4558 46.2578C31.4558 46.2578 32.3172 48.0312 32.2349 53.0077C32.1526 57.9843 28.9426 67.1916 28.9426 67.1916C28.9426 67.1916 32.7306 64.0397 39.2778 52.1905C45.825 40.3412 46.7263 34.5362 46.7263 34.5362C49.3722 25.7632 44.5727 16.4546 36.0061 13.7449C27.4396 11.0352 18.35 15.9504 15.7041 24.7234Z" fill="#1ECD01"/>
<path d="M26.1939 46.2428C27.7477 46.7343 29.3592 46.9855 30.9153 47.0187C30.9772 47.2304 31.0519 47.5244 31.1263 47.9109C31.3201 48.9177 31.5117 50.552 31.4713 52.9951C31.4319 55.3751 30.6353 58.836 29.8221 61.7614C29.4191 63.2112 29.0184 64.5077 28.7184 65.4417C28.5684 65.9085 28.4438 66.2843 28.3569 66.5429C28.3134 66.6721 28.2793 66.7721 28.2563 66.8394L28.2301 66.9155L28.2235 66.9344L28.2219 66.939L28.2216 66.94L28.2215 66.9402L27.3154 69.5391L29.4311 67.7787L28.9426 67.1916C29.4311 67.7787 29.4314 67.7784 29.4318 67.7782L29.4325 67.7776L29.4341 67.7762L29.4385 67.7725L29.4512 67.7617C29.4616 67.7528 29.4755 67.7407 29.493 67.7251C29.5281 67.6941 29.5776 67.6494 29.6411 67.5896C29.7683 67.4702 29.9519 67.2907 30.19 67.0405C30.6663 66.5401 31.3608 65.7564 32.2578 64.6035C34.0514 62.298 36.6566 58.5134 39.9462 52.5598C43.2382 46.602 45.1179 42.1506 46.1767 39.1759C46.7061 37.6886 47.0302 36.5704 47.223 35.8178C47.3193 35.4415 47.3829 35.1566 47.4228 34.9627C47.4427 34.8657 47.4568 34.7915 47.4661 34.74C47.4681 34.729 47.4698 34.7191 47.4714 34.7102C50.2031 25.5642 45.1993 15.8518 36.2364 13.0167C27.2502 10.1743 17.7376 15.3361 14.9729 24.5028C12.2103 33.6624 17.2158 43.4029 26.1939 46.2428Z" stroke="white" stroke-width="1.52742"/>
</g>
<ellipse cx="31.0883" cy="29.5" rx="12.2059" ry="12.5" fill="white"/>
<path d="M31.7372 29.1445H29.5634L29.5517 28.0723H31.4501C31.7704 28.0723 32.0419 28.0254 32.2646 27.9316C32.4911 27.834 32.663 27.6953 32.7802 27.5156C32.8974 27.332 32.956 27.1113 32.956 26.8535C32.956 26.5684 32.9013 26.3359 32.7919 26.1562C32.6826 25.9766 32.5146 25.8457 32.288 25.7637C32.0654 25.6816 31.7802 25.6406 31.4326 25.6406H30.0087V33H28.538V24.4688H31.4326C31.9013 24.4688 32.3193 24.5137 32.6865 24.6035C33.0576 24.6934 33.372 24.834 33.6298 25.0254C33.8915 25.2129 34.0888 25.4512 34.2216 25.7402C34.3583 26.0293 34.4267 26.373 34.4267 26.7715C34.4267 27.123 34.3427 27.4453 34.1747 27.7383C34.0068 28.0273 33.7587 28.2637 33.4306 28.4473C33.1025 28.6309 32.6943 28.7402 32.206 28.7754L31.7372 29.1445ZM31.6728 33H29.1005L29.7626 31.834H31.6728C32.0048 31.834 32.2822 31.7793 32.5048 31.6699C32.7275 31.5566 32.8935 31.4023 33.0029 31.207C33.1161 31.0078 33.1728 30.7754 33.1728 30.5098C33.1728 30.2324 33.124 29.9922 33.0263 29.7891C32.9286 29.582 32.7744 29.4238 32.5634 29.3145C32.3525 29.2012 32.0771 29.1445 31.7372 29.1445H30.0849L30.0966 28.0723H32.247L32.581 28.4766C33.0497 28.4922 33.4345 28.5957 33.7353 28.7871C34.04 28.9785 34.2665 29.2266 34.415 29.5312C34.5634 29.8359 34.6376 30.1641 34.6376 30.5156C34.6376 31.0586 34.5185 31.5137 34.2802 31.8809C34.0458 32.248 33.7079 32.5273 33.2665 32.7188C32.8251 32.9062 32.2939 33 31.6728 33Z" fill="black"/>
<defs>
<filter id="filter0_d_678_617" x="0.21202" y="0.270123" width="62.0063" height="86.8908" filterUnits="userSpaceOnUse" color-interpolation-filters="sRGB">
<feFlood flood-opacity="0" result="BackgroundImageFix"/>
<feColorMatrix in="SourceAlpha" type="matrix" values="0 0 0 0 0 0 0 0 0 0 0 0 0 0 0 0 0 0 127 0" result="hardAlpha"/>
<feOffset dy="2.03656"/>
<feGaussianBlur stdDeviation="6.61881"/>
<feComposite in2="hardAlpha" operator="out"/>
<feColorMatrix type="matrix" values="0 0 0 0 0 0 0 0 0 0 0 0 0 0 0 0 0 0 0.25 0"/>
<feBlend mode="normal" in2="BackgroundImageFix" result="effect1_dropShadow_678_617"/>
<feBlend mode="normal" in="SourceGraphic" in2="effect1_dropShadow_678_617" result="shape"/>
</filter>
</defs>
</svg>
