<svg width="228" height="315" viewBox="0 0 228 315" fill="none" xmlns="http://www.w3.org/2000/svg">
<path d="M23 41.7694V307.231C23 311.523 26.5872 315 31.016 315H219.984C224.413 315 228 311.523 228 307.231V41.7694C228 37.4768 224.413 34 219.984 34H31.016C26.5872 34 23 37.4768 23 41.7694Z" fill="#8B0E68"/>
<path d="M0 26.8524V295.148C0 299.486 3.77966 303 8.44616 303H207.554C212.22 303 216 299.486 216 295.148V26.8524C216 22.5139 212.22 19 207.554 19H8.44616C3.77966 19 0 22.5139 0 26.8524Z" fill="#B91A8C"/>
<path d="M137.26 0H9C4.58 0 1 3.58 1 8V281.34C1 285.76 4.58 289.34 9 289.34H197.59C202.01 289.34 205.59 285.76 205.59 281.34V68.32L137.26 0Z" fill="#D62D9D"/>
<path d="M173.07 194.35H30C27.79 194.35 26 192.56 26 190.35V127C26 124.79 27.79 123 30 123H173.07C175.28 123 177.07 124.79 177.07 127V190.35C177.07 192.56 175.28 194.35 173.07 194.35Z" fill="#FA49BE"/>
<path d="M65.71 178H56.72V138.94H65.71V178ZM106.608 138.94H114.668V178H105.678V158.47L96.6882 178H91.1082L82.1182 158.47V178H73.1282V138.94H81.1882L93.8982 166.53L106.608 138.94ZM139.471 156.92H158.381V178H152.181L150.631 174.28C149.721 175.065 148.709 175.747 147.593 176.326C146.642 176.822 145.485 177.277 144.121 177.69C142.757 178.103 141.207 178.31 139.471 178.31C136.825 178.31 134.325 177.814 131.969 176.822C129.654 175.789 127.629 174.383 125.893 172.606C124.157 170.787 122.772 168.679 121.739 166.282C120.747 163.885 120.251 161.281 120.251 158.47C120.251 155.701 120.747 153.117 121.739 150.72C122.772 148.281 124.157 146.173 125.893 144.396C127.629 142.577 129.654 141.172 131.969 140.18C134.325 139.147 136.825 138.63 139.471 138.63C141.785 138.63 143.914 139.002 145.857 139.746C147.841 140.49 149.577 141.503 151.065 142.784C152.594 144.024 153.875 145.471 154.909 147.124C155.942 148.777 156.686 150.493 157.141 152.27L147.841 152.89C147.593 152.187 147.241 151.505 146.787 150.844C146.332 150.183 145.753 149.583 145.051 149.046C144.348 148.509 143.521 148.095 142.571 147.806C141.661 147.475 140.628 147.31 139.471 147.31C138.065 147.31 136.743 147.599 135.503 148.178C134.263 148.715 133.167 149.48 132.217 150.472C131.307 151.464 130.584 152.642 130.047 154.006C129.509 155.37 129.241 156.858 129.241 158.47C129.241 160.082 129.509 161.57 130.047 162.934C130.584 164.298 131.307 165.476 132.217 166.468C133.167 167.46 134.263 168.245 135.503 168.824C136.743 169.361 138.065 169.63 139.471 169.63C140.711 169.63 141.806 169.485 142.757 169.196C143.749 168.865 144.596 168.452 145.299 167.956C146.043 167.419 146.642 166.84 147.097 166.22C147.551 165.6 147.903 164.98 148.151 164.36H139.471V156.92Z" fill="white"/>
<path d="M137.26 64.32C137.26 66.53 139.05 68.32 141.26 68.32H205.58L137.26 0V64.32Z" fill="#FA49BE"/>
</svg>
