<svg width="25" height="24" viewBox="0 0 25 24" fill="none" xmlns="http://www.w3.org/2000/svg">
<path d="M19.6879 9.03317C20.0003 9.34559 20.5069 9.34559 20.8193 9.03317C21.1317 8.72075 21.1317 8.21422 20.8193 7.9018L19.6879 9.03317ZM23.2312 5.48989C23.5436 5.80231 24.0501 5.80231 24.3626 5.48989C24.675 5.17747 24.675 4.67094 24.3626 4.35852L23.2312 5.48989ZM19.7476 2.28916L17.6185 4.41823L18.7499 5.5496L20.879 3.42053L19.7476 2.28916ZM20.8193 7.9018L18.7499 5.83245L17.6185 6.96382L19.6879 9.03317L20.8193 7.9018ZM24.3626 4.35852L22.2932 2.28916L21.1618 3.42053L23.2312 5.48989L24.3626 4.35852ZM20.879 3.42053C20.9571 3.34243 21.0837 3.34243 21.1618 3.42053L22.2932 2.28916C21.5903 1.58622 20.4506 1.58621 19.7476 2.28916L20.879 3.42053ZM17.6185 4.41823C16.9156 5.12118 16.9156 6.26087 17.6185 6.96382L18.7499 5.83245C18.6718 5.75434 18.6718 5.62771 18.7499 5.5496L17.6185 4.41823Z" fill="#79ACF9"/>
<circle cx="7.76927" cy="16.1356" r="6.76927" stroke="#79ACF9" stroke-width="1.6"/>
<path d="M22.1527 0.904907L12.4219 10.6357" stroke="#79ACF9" stroke-width="1.6" stroke-linecap="round"/>
<path d="M19.6879 9.03317C20.0003 9.34559 20.5069 9.34559 20.8193 9.03317C21.1317 8.72075 21.1317 8.21422 20.8193 7.9018L19.6879 9.03317ZM23.2312 5.48989C23.5436 5.80231 24.0501 5.80231 24.3626 5.48989C24.675 5.17747 24.675 4.67094 24.3626 4.35852L23.2312 5.48989ZM19.7476 2.28916L17.6185 4.41823L18.7499 5.5496L20.879 3.42053L19.7476 2.28916ZM20.8193 7.9018L18.7499 5.83245L17.6185 6.96382L19.6879 9.03317L20.8193 7.9018ZM24.3626 4.35852L22.2932 2.28916L21.1618 3.42053L23.2312 5.48989L24.3626 4.35852ZM20.879 3.42053C20.9571 3.34243 21.0837 3.34243 21.1618 3.42053L22.2932 2.28916C21.5903 1.58622 20.4506 1.58621 19.7476 2.28916L20.879 3.42053ZM17.6185 4.41823C16.9156 5.12118 16.9156 6.26087 17.6185 6.96382L18.7499 5.83245C18.6718 5.75434 18.6718 5.62771 18.7499 5.5496L17.6185 4.41823Z" fill="#79ACF9"/>
<circle cx="7.76927" cy="16.1356" r="6.76927" stroke="#79ACF9" stroke-width="1.6"/>
<path d="M22.1527 0.904907L12.4219 10.6357" stroke="#79ACF9" stroke-width="1.6" stroke-linecap="round"/>
</svg>
