<svg width="228" height="315" viewBox="0 0 228 315" fill="none" xmlns="http://www.w3.org/2000/svg">
<path d="M23 41.7694V307.231C23 311.523 26.5872 315 31.016 315H219.984C224.413 315 228 311.523 228 307.231V41.7694C228 37.4768 224.413 34 219.984 34H31.016C26.5872 34 23 37.4768 23 41.7694Z" fill="#9A1830"/>
<path d="M0 26.8524V295.148C0 299.486 3.77966 303 8.44616 303H207.554C212.22 303 216 299.486 216 295.148V26.8524C216 22.5139 212.22 19 207.554 19H8.44616C3.77966 19 0 22.5139 0 26.8524Z" fill="#D00C30"/>
<path d="M137.26 0H9C4.58 0 1 3.58 1 8V281.34C1 285.76 4.58 289.34 9 289.34H197.59C202.01 289.34 205.59 285.76 205.59 281.34V68.32L137.26 0Z" fill="#E83354"/>
<path d="M173.07 194.35H30C27.79 194.35 26 192.56 26 190.35V127C26 124.79 27.79 123 30 123H173.07C175.28 123 177.07 124.79 177.07 127V190.35C177.07 192.56 175.28 194.35 173.07 194.35Z" fill="#FF5473"/>
<path d="M71.91 138.94C73.9353 138.94 75.7953 139.291 77.49 139.994C79.1847 140.655 80.652 141.606 81.892 142.846C83.132 144.045 84.1033 145.45 84.806 147.062C85.5087 148.674 85.86 150.41 85.86 152.27C85.86 154.13 85.5087 155.866 84.806 157.478C84.1033 159.09 83.132 160.516 81.892 161.756C80.652 162.955 79.1847 163.905 77.49 164.608C75.7953 165.269 73.9353 165.6 71.91 165.6H65.71V178H56.72V138.94H71.91ZM71.91 156.92C73.3153 156.92 74.4933 156.465 75.444 155.556C76.3947 154.605 76.87 153.51 76.87 152.27C76.87 151.03 76.3947 149.955 75.444 149.046C74.4933 148.095 73.3153 147.62 71.91 147.62H65.71V156.92H71.91ZM104.743 169.32C106.231 169.32 107.616 169.051 108.897 168.514C110.179 167.935 111.295 167.171 112.245 166.22C113.196 165.269 113.94 164.133 114.477 162.81C115.015 161.487 115.283 160.041 115.283 158.47C115.283 156.941 115.015 155.515 114.477 154.192C113.94 152.828 113.196 151.671 112.245 150.72C111.295 149.769 110.179 149.025 108.897 148.488C107.616 147.909 106.231 147.62 104.743 147.62H100.403V169.32H104.743ZM91.4134 138.94H104.743C107.471 138.94 110.013 139.457 112.369 140.49C114.725 141.482 116.792 142.867 118.569 144.644C120.347 146.421 121.731 148.488 122.723 150.844C123.757 153.2 124.273 155.742 124.273 158.47C124.273 161.198 123.757 163.74 122.723 166.096C121.731 168.452 120.347 170.519 118.569 172.296C116.792 174.073 114.725 175.479 112.369 176.512C110.013 177.504 107.471 178 104.743 178H91.4134V138.94ZM129.861 138.94H156.831V147.62H138.851V155.68H153.421V164.36H138.851V178H129.861V138.94Z" fill="white"/>
<path d="M137.26 64.32C137.26 66.53 139.05 68.32 141.26 68.32H205.58L137.26 0V64.32Z" fill="#FF5473"/>
</svg>
