<svg width="22" height="24" viewBox="0 0 22 24" fill="none" xmlns="http://www.w3.org/2000/svg">
<circle cx="11" cy="6" r="5" stroke="#79A5F9" stroke-width="2"/>
<path d="M20.9919 18.7397L19.9955 18.8252V18.8252L20.9919 18.7397ZM1.00812 18.7397L2.00445 18.8252L1.00812 18.7397ZM20.1302 20.5668L20.6579 21.4163L20.1302 20.5668ZM1.86983 20.5668L2.39751 19.7174H2.39751L1.86983 20.5668ZM20.1051 15.7378L19.2002 16.1635L20.1051 15.7378ZM19.6025 19.7174C18.441 20.4389 15.7709 21.6667 11 21.6667V23.6667C16.1349 23.6667 19.1719 22.3393 20.6579 21.4163L19.6025 19.7174ZM11 21.6667C6.2291 21.6667 3.55904 20.4389 2.39751 19.7174L1.34215 21.4163C2.82806 22.3393 5.86511 23.6667 11 23.6667V21.6667ZM0.0117784 18.6541C-0.0788255 19.7098 0.359945 20.8061 1.34215 21.4163L2.39751 19.7174C2.14089 19.558 1.96907 19.2374 2.00445 18.8252L0.0117784 18.6541ZM19.9955 18.8252C20.0309 19.2374 19.8591 19.558 19.6025 19.7174L20.6579 21.4163C21.6401 20.8061 22.0788 19.7098 21.9882 18.6541L19.9955 18.8252ZM19.2002 16.1635C19.5649 16.9387 19.9165 17.9042 19.9955 18.8252L21.9882 18.6541C21.8801 17.3943 21.4192 16.182 21.0099 15.3121L19.2002 16.1635ZM2.00445 18.8252C2.0835 17.9042 2.43509 16.9387 2.79978 16.1635L0.990052 15.3121C0.580802 16.182 0.11991 17.3943 0.0117784 18.6541L2.00445 18.8252ZM17.7293 13.3334H4.27073V15.3334H17.7293V13.3334ZM2.79978 16.1635C3.03194 15.67 3.58122 15.3334 4.27073 15.3334V13.3334C2.95576 13.3334 1.6112 13.9918 0.990052 15.3121L2.79978 16.1635ZM21.0099 15.3121C20.3888 13.9918 19.0442 13.3334 17.7293 13.3334V15.3334C18.4188 15.3334 18.9681 15.67 19.2002 16.1635L21.0099 15.3121Z" fill="#79A5F9"/>
</svg>
