<svg width="228" height="315" viewBox="0 0 228 315" fill="none" xmlns="http://www.w3.org/2000/svg">
<path d="M23 41.7694V307.231C23 311.523 26.5872 315 31.016 315H219.984C224.413 315 228 311.523 228 307.231V41.7694C228 37.4768 224.413 34 219.984 34H31.016C26.5872 34 23 37.4768 23 41.7694Z" fill="#A20D54"/>
<path d="M0 26.8524V295.148C0 299.486 3.77966 303 8.44616 303H207.554C212.22 303 216 299.486 216 295.148V26.8524C216 22.5139 212.22 19 207.554 19H8.44616C3.77966 19 0 22.5139 0 26.8524Z" fill="#C63C7E"/>
<path d="M137.26 0H9C4.58 0 1 3.58 1 8V281.34C1 285.76 4.58 289.34 9 289.34H197.59C202.01 289.34 205.59 285.76 205.59 281.34V68.32L137.26 0Z" fill="#EE5FA4"/>
<path d="M173.07 194.35H30C27.79 194.35 26 192.56 26 190.35V127C26 124.79 27.79 123 30 123H173.07C175.28 123 177.07 124.79 177.07 127V190.35C177.07 192.56 175.28 194.35 173.07 194.35Z" fill="#FF7BBA"/>
<path d="M73.91 138.94C75.9353 138.94 77.7953 139.291 79.49 139.994C81.1847 140.655 82.652 141.606 83.892 142.846C85.132 144.045 86.1033 145.45 86.806 147.062C87.5087 148.674 87.86 150.41 87.86 152.27C87.86 154.13 87.5087 155.866 86.806 157.478C86.1033 159.09 85.132 160.516 83.892 161.756C82.652 162.955 81.1847 163.905 79.49 164.608C77.7953 165.269 75.9353 165.6 73.91 165.6H67.71V178H58.72V138.94H73.91ZM73.91 156.92C75.3153 156.92 76.4933 156.465 77.444 155.556C78.3947 154.605 78.87 153.51 78.87 152.27C78.87 151.03 78.3947 149.955 77.444 149.046C76.4933 148.095 75.3153 147.62 73.91 147.62H67.71V156.92H73.91ZM108.603 138.94C110.629 138.94 112.489 139.291 114.183 139.994C115.878 140.655 117.345 141.606 118.585 142.846C119.825 144.045 120.797 145.45 121.499 147.062C122.202 148.674 122.553 150.41 122.553 152.27C122.553 154.13 122.202 155.866 121.499 157.478C120.797 159.09 119.825 160.516 118.585 161.756C117.345 162.955 115.878 163.905 114.183 164.608C112.489 165.269 110.629 165.6 108.603 165.6H102.403V178H93.4134V138.94H108.603ZM108.603 156.92C110.009 156.92 111.187 156.465 112.137 155.556C113.088 154.605 113.563 153.51 113.563 152.27C113.563 151.03 113.088 149.955 112.137 149.046C111.187 148.095 110.009 147.62 108.603 147.62H102.403V156.92H108.603ZM145.157 178H136.167V147.62H125.007V138.94H156.317V147.62H145.157V178Z" fill="white"/>
<path d="M137.26 64.32C137.26 66.53 139.05 68.32 141.26 68.32H205.58L137.26 0V64.32Z" fill="#FF7BBA"/>
</svg>
