<svg width="42" height="42" viewBox="0 0 42 42" fill="none" xmlns="http://www.w3.org/2000/svg">
<g clip-path="url(#clip0)">
<path d="M38.8407 11.3955L38.8394 11.3629C38.8212 10.9594 38.809 10.5326 38.8016 10.0577C38.7673 7.74196 36.9264 5.8264 34.6104 5.69695C29.7814 5.42746 26.0458 3.85285 22.854 0.741762L22.8267 0.715807C21.7856 -0.238765 20.2152 -0.238765 19.1738 0.715807L19.1465 0.741762C15.9547 3.85285 12.2191 5.42746 7.39016 5.69727C5.07438 5.8264 3.23317 7.74196 3.19888 10.0581C3.19183 10.5297 3.17934 10.9565 3.16107 11.3629L3.15915 11.4388C3.06526 16.3629 2.94862 22.4912 4.99876 28.0536C6.12604 31.1125 7.83332 33.7714 10.0728 35.9571C12.6235 38.4462 15.9643 40.4223 20.0024 41.8303C20.1338 41.8762 20.2703 41.9133 20.4094 41.9412C20.6055 41.9803 20.8029 41.9998 21.0003 41.9998C21.1976 41.9998 21.3953 41.9803 21.5911 41.9412C21.7302 41.9133 21.8677 41.8758 21.9997 41.8297C26.033 40.4191 29.3703 38.4421 31.9187 35.9533C34.1573 33.7669 35.8645 31.1073 36.9928 28.0478C39.0506 22.4688 38.9343 16.3289 38.8407 11.3955ZM34.6805 27.1952C32.5182 33.0578 28.1043 37.0841 21.1864 39.5033C21.1618 39.5117 21.1355 39.519 21.1082 39.5245C21.0368 39.5386 20.964 39.5386 20.8916 39.5242C20.8647 39.5187 20.8384 39.5117 20.8141 39.5033C13.8889 37.0886 9.47201 33.0645 7.31133 27.2016C5.42173 22.0743 5.52876 16.4488 5.62328 11.4859L5.62393 11.4583C5.64315 11.0318 5.65597 10.5852 5.66302 10.0943C5.6784 9.06599 6.49743 8.21524 7.52762 8.15788C10.2603 8.00535 12.661 7.47728 14.8668 6.54353C17.0698 5.61107 19.0264 4.29665 20.8477 2.5253C20.9403 2.44711 21.0605 2.44679 21.1528 2.5253C22.9744 4.29665 24.931 5.61107 27.1337 6.54353C29.3395 7.47728 31.7402 8.00535 34.4732 8.15788C35.5034 8.21524 36.3224 9.06599 36.3375 10.0946C36.3449 10.588 36.3577 11.0347 36.3769 11.4583C36.4711 16.427 36.5756 22.057 34.6805 27.1952Z" fill="#618EEF"/>
<path d="M21.0002 10.5336C15.2285 10.5336 10.5332 15.2292 10.5332 21.0006C10.5332 26.7722 15.2285 31.4679 21.0002 31.4679C26.7715 31.4679 31.4672 26.7722 31.4672 21.0006C31.4672 15.2292 26.7715 10.5336 21.0002 10.5336ZM21.0002 29.0031C16.5875 29.0031 12.9977 25.4133 12.9977 21.0006C12.9977 16.5879 16.5875 12.998 21.0002 12.998C25.4126 12.998 29.0024 16.5879 29.0024 21.0006C29.0024 25.4133 25.4126 29.0031 21.0002 29.0031Z" fill="#618EEF"/>
<path d="M24.0094 17.7511L19.1477 22.6127L17.8282 21.2932C17.3469 20.8119 16.5666 20.8119 16.0853 21.2932C15.6044 21.7745 15.6044 22.5547 16.0853 23.0357L18.2765 25.2268C18.5171 25.4675 18.8324 25.5876 19.1477 25.5876C19.463 25.5876 19.7783 25.4675 20.019 25.2268L25.7522 19.4936C26.2332 19.0123 26.2332 18.2321 25.7522 17.7511C25.2709 17.2695 24.4907 17.2695 24.0094 17.7511Z" fill="#618EEF"/>
</g>
<defs>
<clipPath id="clip0">
<rect width="42" height="42" fill="white"/>
</clipPath>
</defs>
</svg>
