<svg width="63" height="88" viewBox="0 0 63 88" fill="none" xmlns="http://www.w3.org/2000/svg">
<g filter="url(#filter0_d_474_11819)">
<path d="M15.9963 24.7234C13.3503 33.4963 18.1499 42.8049 26.7164 45.5146C28.3736 46.0388 30.1022 46.277 31.7481 46.2578C31.7481 46.2578 32.6095 48.0312 32.5271 53.0077C32.4448 57.9843 29.2349 67.1916 29.2349 67.1916C29.2349 67.1916 33.0228 64.0397 39.57 52.1905C46.1172 40.3412 47.0185 34.5362 47.0185 34.5362C49.6645 25.7632 44.8649 16.4546 36.2984 13.7449C27.7318 11.0352 18.6423 15.9504 15.9963 24.7234Z" fill="#E8C512"/>
<path d="M26.4861 46.2428C28.04 46.7343 29.6514 46.9855 31.2075 47.0187C31.2694 47.2304 31.3441 47.5244 31.4185 47.9109C31.6123 48.9177 31.8039 50.552 31.7635 52.9951C31.7242 55.3751 30.9275 58.836 30.1143 61.7614C29.7113 63.2112 29.3106 64.5077 29.0106 65.4417C28.8607 65.9085 28.7361 66.2843 28.6491 66.5429C28.6056 66.6721 28.5716 66.7721 28.5485 66.8394L28.5223 66.9155L28.5158 66.9344L28.5142 66.939L28.5138 66.94L28.5137 66.9402L27.6077 69.5391L29.7234 67.7787L29.2349 67.1916C29.7234 67.7787 29.7237 67.7784 29.724 67.7782L29.7247 67.7776L29.7263 67.7762L29.7307 67.7725L29.7435 67.7617C29.7538 67.7528 29.7677 67.7407 29.7853 67.7251C29.8204 67.6941 29.8698 67.6494 29.9334 67.5896C30.0605 67.4702 30.2441 67.2907 30.4823 67.0405C30.9585 66.5401 31.653 65.7564 32.55 64.6035C34.3437 62.298 36.9489 58.5134 40.2385 52.5598C43.5304 46.602 45.4102 42.1506 46.4689 39.1759C46.9983 37.6886 47.3225 36.5704 47.5152 35.8178C47.6116 35.4415 47.6751 35.1566 47.715 34.9627C47.735 34.8657 47.749 34.7915 47.7583 34.74C47.7603 34.729 47.7621 34.7191 47.7636 34.7102C50.4953 25.5642 45.4915 15.8518 36.5287 13.0167C27.5425 10.1743 18.0298 15.3361 15.2651 24.5028C12.5025 33.6624 17.5081 43.4029 26.4861 46.2428Z" stroke="white" stroke-width="1.52742"/>
</g>
<ellipse cx="31.3803" cy="29.5" rx="12.2059" ry="12.5" fill="white"/>
<path d="M32.1534 25.6055L29.6046 33H28.0636L31.2745 24.4688H32.2589L32.1534 25.6055ZM34.2863 33L31.7316 25.6055L31.6202 24.4688H32.6105L35.8331 33H34.2863ZM34.1632 29.8359V31.002H29.5226V29.8359H34.1632Z" fill="black"/>
<defs>
<filter id="filter0_d_474_11819" x="0.504195" y="0.270612" width="62.0064" height="86.8903" filterUnits="userSpaceOnUse" color-interpolation-filters="sRGB">
<feFlood flood-opacity="0" result="BackgroundImageFix"/>
<feColorMatrix in="SourceAlpha" type="matrix" values="0 0 0 0 0 0 0 0 0 0 0 0 0 0 0 0 0 0 127 0" result="hardAlpha"/>
<feOffset dy="2.03656"/>
<feGaussianBlur stdDeviation="6.61881"/>
<feComposite in2="hardAlpha" operator="out"/>
<feColorMatrix type="matrix" values="0 0 0 0 0 0 0 0 0 0 0 0 0 0 0 0 0 0 0.25 0"/>
<feBlend mode="normal" in2="BackgroundImageFix" result="effect1_dropShadow_474_11819"/>
<feBlend mode="normal" in="SourceGraphic" in2="effect1_dropShadow_474_11819" result="shape"/>
</filter>
</defs>
</svg>
