<svg width="63" height="88" viewBox="0 0 63 88" fill="none" xmlns="http://www.w3.org/2000/svg">
<g filter="url(#filter0_d_678_622)">
<path d="M15.7274 24.7234C13.0814 33.4963 17.881 42.8049 26.4475 45.5146C28.1046 46.0388 29.8333 46.277 31.4791 46.2578C31.4791 46.2578 32.3405 48.0312 32.2582 53.0077C32.1759 57.9843 28.966 67.1916 28.966 67.1916C28.966 67.1916 32.7539 64.0397 39.3011 52.1905C45.8483 40.3412 46.7496 34.5362 46.7496 34.5362C49.3955 25.7632 44.596 16.4546 36.0294 13.7449C27.4629 11.0352 18.3733 15.9504 15.7274 24.7234Z" fill="#E84A4A"/>
<path d="M26.2172 46.2428C27.771 46.7343 29.3825 46.9855 30.9386 47.0187C31.0005 47.2304 31.0752 47.5244 31.1496 47.9109C31.3434 48.9177 31.535 50.552 31.4946 52.9951C31.4552 55.3751 30.6586 58.836 29.8454 61.7614C29.4424 63.2112 29.0417 64.5077 28.7417 65.4417C28.5917 65.9085 28.4671 66.2843 28.3802 66.5429C28.3367 66.6721 28.3027 66.7721 28.2796 66.8394L28.2534 66.9155L28.2468 66.9344L28.2453 66.939L28.2449 66.94L28.2448 66.9402L27.3388 69.5391L29.4545 67.7787L28.966 67.1916C29.4545 67.7787 29.4548 67.7784 29.4551 67.7782L29.4558 67.7776L29.4574 67.7762L29.4618 67.7725L29.4745 67.7617C29.4849 67.7528 29.4988 67.7407 29.5164 67.7251C29.5514 67.6941 29.6009 67.6494 29.6645 67.5896C29.7916 67.4702 29.9752 67.2907 30.2133 67.0405C30.6896 66.5401 31.3841 65.7564 32.2811 64.6035C34.0748 62.298 36.6799 58.5134 39.9695 52.5598C43.2615 46.602 45.1412 42.1506 46.2 39.1759C46.7294 37.6886 47.0535 36.5704 47.2463 35.8178C47.3427 35.4415 47.4062 35.1566 47.4461 34.9627C47.466 34.8657 47.4801 34.7915 47.4894 34.74C47.4914 34.729 47.4931 34.7191 47.4947 34.7102C50.2264 25.5642 45.2226 15.8518 36.2598 13.0167C27.2735 10.1743 17.7609 15.3361 14.9962 24.5028C12.2336 33.6624 17.2391 43.4029 26.2172 46.2428Z" stroke="white" stroke-width="1.52742"/>
</g>
<ellipse cx="31.1115" cy="29.5" rx="12.2059" ry="12.5" fill="white"/>
<path d="M31.8845 25.6055L29.3357 33H27.7947L31.0056 24.4688H31.99L31.8845 25.6055ZM34.0173 33L31.4626 25.6055L31.3513 24.4688H32.3416L35.5642 33H34.0173ZM33.8943 29.8359V31.002H29.2537V29.8359H33.8943Z" fill="black"/>
<defs>
<filter id="filter0_d_678_622" x="0.235335" y="0.270123" width="62.0063" height="86.8908" filterUnits="userSpaceOnUse" color-interpolation-filters="sRGB">
<feFlood flood-opacity="0" result="BackgroundImageFix"/>
<feColorMatrix in="SourceAlpha" type="matrix" values="0 0 0 0 0 0 0 0 0 0 0 0 0 0 0 0 0 0 127 0" result="hardAlpha"/>
<feOffset dy="2.03656"/>
<feGaussianBlur stdDeviation="6.61881"/>
<feComposite in2="hardAlpha" operator="out"/>
<feColorMatrix type="matrix" values="0 0 0 0 0 0 0 0 0 0 0 0 0 0 0 0 0 0 0.25 0"/>
<feBlend mode="normal" in2="BackgroundImageFix" result="effect1_dropShadow_678_622"/>
<feBlend mode="normal" in="SourceGraphic" in2="effect1_dropShadow_678_622" result="shape"/>
</filter>
</defs>
</svg>
