<svg width="228" height="315" viewBox="0 0 228 315" fill="none" xmlns="http://www.w3.org/2000/svg">
<path d="M23 41.7694V307.231C23 311.523 26.5872 315 31.016 315H219.984C224.413 315 228 311.523 228 307.231V41.7694C228 37.4768 224.413 34 219.984 34H31.016C26.5872 34 23 37.4768 23 41.7694Z" fill="#007080"/>
<path d="M0 26.8524V295.148C0 299.486 3.77966 303 8.44616 303H207.554C212.22 303 216 299.486 216 295.148V26.8524C216 22.5139 212.22 19 207.554 19H8.44616C3.77966 19 0 22.5139 0 26.8524Z" fill="#0092A7"/>
<path d="M137.26 0H9C4.58 0 1 3.58 1 8V281.34C1 285.76 4.58 289.34 9 289.34H197.59C202.01 289.34 205.59 285.76 205.59 281.34V68.32L137.26 0Z" fill="#00BCD7"/>
<path d="M173.07 194.35H30C27.79 194.35 26 192.56 26 190.35V127C26 124.79 27.79 123 30 123H173.07C175.28 123 177.07 124.79 177.07 127V190.35C177.07 192.56 175.28 194.35 173.07 194.35Z" fill="#00DFFF"/>
<path d="M73.77 178H64.78V147.62H53.62V138.94H84.93V147.62H73.77V178ZM96.1142 138.94L103.554 151.65L110.994 138.94H120.914L109.134 158.16L121.534 178H111.614L103.554 164.67L95.4942 178H85.5742L97.9742 158.16L86.1942 138.94H96.1142ZM142.309 178H133.319V147.62H122.159V138.94H153.469V147.62H142.309V178Z" fill="white"/>
<path d="M137.26 64.32C137.26 66.53 139.05 68.32 141.26 68.32H205.58L137.26 0V64.32Z" fill="#00DFFF"/>
</svg>
