<svg width="228" height="315" viewBox="0 0 228 315" fill="none" xmlns="http://www.w3.org/2000/svg">
<path d="M23 41.7694V307.231C23 311.523 26.5872 315 31.016 315H219.984C224.413 315 228 311.523 228 307.231V41.7694C228 37.4768 224.413 34 219.984 34H31.016C26.5872 34 23 37.4768 23 41.7694Z" fill="#008770"/>
<path d="M0 26.8524V295.148C0 299.486 3.77966 303 8.44616 303H207.554C212.22 303 216 299.486 216 295.148V26.8524C216 22.5139 212.22 19 207.554 19H8.44616C3.77966 19 0 22.5139 0 26.8524Z" fill="#00AB8C"/>
<path d="M137.26 0H9C4.58 0 1 3.58 1 8V281.34C1 285.76 4.58 289.34 9 289.34H197.59C202.01 289.34 205.59 285.76 205.59 281.34V68.32L137.26 0Z" fill="#00C295"/>
<path d="M173.07 194.35H30C27.79 194.35 26 192.56 26 190.35V127C26 124.79 27.79 123 30 123H173.07C175.28 123 177.07 124.79 177.07 127V190.35C177.07 192.56 175.28 194.35 173.07 194.35Z" fill="#00E6B0"/>
<path d="M63.54 138.94L70.98 151.65L78.42 138.94H88.34L76.56 158.16L88.96 178H79.04L70.98 164.67L62.92 178H53L65.4 158.16L53.62 138.94H63.54ZM92.6848 138.94H101.675V169.32H119.345V178H92.6848V138.94ZM122.135 149.79C122.135 148.302 122.445 146.897 123.065 145.574C123.726 144.21 124.656 143.032 125.855 142.04C127.054 141.007 128.5 140.18 130.195 139.56C131.931 138.94 133.894 138.63 136.085 138.63C138.193 138.63 140.074 138.94 141.727 139.56C143.422 140.18 144.848 141.048 146.005 142.164C147.204 143.28 148.113 144.603 148.733 146.132C149.394 147.62 149.725 149.253 149.725 151.03L141.045 151.65C141.045 150.079 140.611 148.86 139.743 147.992C138.875 147.124 137.656 146.69 136.085 146.69C134.68 146.69 133.543 147.083 132.675 147.868C131.848 148.612 131.435 149.459 131.435 150.41C131.435 151.361 131.91 152.084 132.861 152.58C133.812 153.076 134.99 153.551 136.395 154.006C137.842 154.419 139.392 154.874 141.045 155.37C142.698 155.866 144.228 156.569 145.633 157.478C147.08 158.387 148.278 159.586 149.229 161.074C150.18 162.562 150.655 164.484 150.655 166.84C150.655 168.411 150.324 169.899 149.663 171.304C149.043 172.668 148.113 173.867 146.873 174.9C145.633 175.933 144.104 176.76 142.285 177.38C140.466 178 138.4 178.31 136.085 178.31C133.853 178.31 131.848 178 130.071 177.38C128.294 176.76 126.785 175.892 125.545 174.776C124.346 173.619 123.416 172.275 122.755 170.746C122.135 169.175 121.825 167.46 121.825 165.6L130.505 164.98C130.505 168.493 132.365 170.25 136.085 170.25C137.821 170.25 139.123 169.857 139.991 169.072C140.9 168.245 141.355 167.295 141.355 166.22C141.355 165.228 140.88 164.463 139.929 163.926C138.978 163.389 137.78 162.893 136.333 162.438C134.928 161.983 133.398 161.508 131.745 161.012C130.092 160.516 128.542 159.834 127.095 158.966C125.69 158.057 124.512 156.879 123.561 155.432C122.61 153.985 122.135 152.105 122.135 149.79Z" fill="white"/>
<path d="M137.26 64.32C137.26 66.53 139.05 68.32 141.26 68.32H205.58L137.26 0V64.32Z" fill="#00E6B0"/>
</svg>
