<svg width="228" height="315" viewBox="0 0 228 315" fill="none" xmlns="http://www.w3.org/2000/svg">
<path d="M23 41.7694V307.231C23 311.523 26.5872 315 31.016 315H219.984C224.413 315 228 311.523 228 307.231V41.7694C228 37.4768 224.413 34 219.984 34H31.016C26.5872 34 23 37.4768 23 41.7694Z" fill="#8B3B0E"/>
<path d="M0 26.8524V295.148C0 299.486 3.77966 303 8.44616 303H207.554C212.22 303 216 299.486 216 295.148V26.8524C216 22.5139 212.22 19 207.554 19H8.44616C3.77966 19 0 22.5139 0 26.8524Z" fill="#B9531A"/>
<path d="M137.26 0H9C4.58 0 1 3.58 1 8V281.34C1 285.76 4.58 289.34 9 289.34H197.59C202.01 289.34 205.59 285.76 205.59 281.34V68.32L137.26 0Z" fill="#D6602D"/>
<path d="M173.07 194.35H30C27.79 194.35 26 192.56 26 190.35V127C26 124.79 27.79 123 30 123H173.07C175.28 123 177.07 124.79 177.07 127V190.35C177.07 192.56 175.28 194.35 173.07 194.35Z" fill="#FF8855"/>
<path d="M72.33 169.32H90V178H60.86V170.56L77.6 147.62H61.48V138.94H89.07V146.38L72.33 169.32ZM104.587 178H95.597V138.94H104.587V178ZM127.195 138.94C129.22 138.94 131.08 139.291 132.775 139.994C134.47 140.655 135.937 141.606 137.177 142.846C138.417 144.045 139.388 145.45 140.091 147.062C140.794 148.674 141.145 150.41 141.145 152.27C141.145 154.13 140.794 155.866 140.091 157.478C139.388 159.09 138.417 160.516 137.177 161.756C135.937 162.955 134.47 163.905 132.775 164.608C131.08 165.269 129.22 165.6 127.195 165.6H120.995V178H112.005V138.94H127.195ZM127.195 156.92C128.6 156.92 129.778 156.465 130.729 155.556C131.68 154.605 132.155 153.51 132.155 152.27C132.155 151.03 131.68 149.955 130.729 149.046C129.778 148.095 128.6 147.62 127.195 147.62H120.995V156.92H127.195Z" fill="white"/>
<path d="M137.26 64.32C137.26 66.53 139.05 68.32 141.26 68.32H205.58L137.26 0V64.32Z" fill="#FF8855"/>
</svg>
